<svg width="60" height="60" viewBox="0 0 60 60" fill="none" xmlns="http://www.w3.org/2000/svg">
<path d="M30 13.3333L46.6667 30H36.6667V43.3333H23.3333V30H13.3333L30 13.3333ZM53.3333 60H6.66667C4.89856 60 3.20286 59.2976 1.95262 58.0474C0.702379 56.7971 0 55.1014 0 53.3333V6.66667C0 4.89856 0.702379 3.20286 1.95262 1.95262C3.20286 0.702379 4.89856 0 6.66667 0H53.3333C55.1014 0 56.7971 0.702379 58.0474 1.95262C59.2976 3.20286 60 4.89856 60 6.66667V53.3333C60 55.1014 59.2976 56.7971 58.0474 58.0474C56.7971 59.2976 55.1014 60 53.3333 60ZM53.3333 53.3333V6.66667H6.66667V53.3333H53.3333Z" fill="#D8D8D8"/>
</svg>
