<svg width="1667" height="403" fill="none" xmlns="http://www.w3.org/2000/svg"><path d="M440 365.5c-.9 0-1.5-.3-1.8-1-.3-.7-.7-2.2-1-4.5-.5-3.6-1.6-7-3-10a27 27 0 0 0-6-8c-2.3-2.3-5-3.8-8-4.8 0 6.8.5 15.3 1.4 25.5 0 1.5-2 2.3-6 2.3h-6c-1.2 0-2.2-.3-2.8-.9-.6-.6-1-1.9-1.3-4-.3-2.1-.5-5.4-.6-9.8l-.1-19.4c0-7.7.1-13.4.4-17 .3-3.8.8-6.1 1.5-7.1.6-1 1.6-1.6 3-1.6l1.6.1a15.2 15.2 0 0 0 4.8 0l4.7-.2c1 .2 1.5 1 1.5 2 0 .9-.2 2.9-.7 6-.9 5.9-1.3 12.4-1.3 19.6h1c10.6-19 20.2-28.6 28.7-28.6 1.4 0 2.7.2 3.8.6 1.1.4 1.7.9 1.7 1.4 0 .8-.4 1.7-1 2.7a19 19 0 0 0-1.8 3.7c-.4 1.4-.8 3.7-1 6.8v2.7l-3.4.1c-1.1-2.6-3.1-4-5.9-4-2.1 0-4.6 1.2-7.4 3.6a33.2 33.2 0 0 0-7.2 8.5c-1 1.6-2 2.9-2.7 3.8 6 1.7 11 4 15.1 6.7s7.3 5.6 9.6 8.6a31 31 0 0 1 4.7 8.2c.9 2.5 1.3 4.6 1.3 6.2 0 1.1-1.5 1.7-4.7 1.7a80 80 0 0 1-4.6-.4c-.4 0-1.4 0-3.2.3l-3.3.2Zm37-9.7.6 4.3c.7 5.9 1.1 12.7 1.1 20.5 0 6.5-.7 11-2.1 13.4-1.4 2.5-3.4 3.8-6 3.8-1.7 0-2.6-.4-2.9-1.3v-.8a267.4 267.4 0 0 0-1.6-39.6l-1-10.4-.2-7.7a41.5 41.5 0 0 1 14.7-32.1c4-3.2 7-4.8 9.4-4.8 2 0 4.3 1.1 7 3.2a53.3 53.3 0 0 1 16 36.7c-.1 5-1 9.5-2.5 13.4-1.5 4-3.6 7-6.4 9.2a14.3 14.3 0 0 1-9.1 3.3 17 17 0 0 1-9.6-3.3 23 23 0 0 1-7.3-7.8Zm3.7-42.6a31.3 31.3 0 0 0-5.4 19.8c0 5 .9 9.5 2.6 13.6 1.8 4 4 7 6.5 9.2 2.5 2.2 4.8 3.3 6.9 3.3 1.5 0 3-.7 4.4-2.1 1.4-1.5 2.2-4 2.5-7.8v-4.7a51.4 51.4 0 0 0-9-23.5 22.8 22.8 0 0 0-8.5-7.8Zm72.5 17.4c-.6-3.2-1.8-7.3-3.6-12.4a55 55 0 0 0-10.1 14c-1.8 4.1-2.7 7.2-2.7 9.4 0 2.1.6 4.1 1.9 6 1.2 1.8 3.1 2.7 5.6 2.7 2.3 0 4.3-.6 6-1.7a11.3 11.3 0 0 0 5-8.7c0-.7-.3-2.1-.9-4-.5-2-1-3.8-1.2-5.3Zm9.2 32.3c-1.4-6-3-11.7-4.9-17.2-4.2 13.8-11 20.7-20.2 20.7-3.3 0-6-.9-8-2.7a15 15 0 0 1-4.4-6.5c-.9-2.5-1.3-5-1.3-7.4 0-2.3.6-4.7 1.7-7.2 1-2.5 2.5-5 4.3-7.6a77 77 0 0 1 4.4-5.8 486.2 486.2 0 0 1 12.5-14c.6-.7.8-1.4.8-2 0-1-.3-2.5-.9-4.4a9 9 0 0 1-.4-2.6c0-.5.9-.7 2.6-.7h13c.9 0 1.4.2 1.6.8v1.4a28.9 28.9 0 0 0 .9 4.6 506 506 0 0 0 15.3 51.5c0 .8-.8 1.2-2.5 1.2h-13c-.7 0-1.2-.7-1.5-2Zm79-51.6 3.3 4a23 23 0 0 1-11.9 4.4c-3.5 0-7.3-2.2-11.1-6.7a39.7 39.7 0 0 0-3.5-3.6c-.9-.7-2-1.1-3.2-1.1-4 0-6.5 2.5-7.7 7.5-1.2 5-2 11.2-2.1 18.7 2-1.6 4.8-3.2 8.4-4.8a22 22 0 0 1 8.6-2.4c1.6 0 3.2.2 4.6.7 1.6.6 3.3 1.4 5 2.5 1.7 1 3 1.6 3.8 1.6 1.8 0 3.4-.7 4.9-2l2.6 3.4a44.7 44.7 0 0 1-10.4 8.7c-.8.4-2 .6-3.4.6a11 11 0 0 1-6-2.1 37 37 0 0 0-5.1-3.1c-1.3-.6-2.8-.9-4.3-.9a13 13 0 0 0-8.6 3.7c0 6.7 1.6 12.2 4.8 16.5 3.2 4.4 7.5 6.6 13 6.6 4.8 0 10.3-2.3 16.5-6.7l2.4 2.7a30 30 0 0 1-23 9.8c-4.4 0-9-.8-13.7-2.5a27.1 27.1 0 0 1-12.3-9.3 32 32 0 0 1-5.8-18.5v-4.3a42 42 0 0 1 3.4-13.7c2-4.8 5-8.8 9-12.2 4.1-3.4 9.1-5.1 15-5.1 6 0 12.4 2.1 19.2 6.4 2 1.4 3.6 2.1 4.8 2.1 1 0 2-.3 2.8-1Zm17-5.8h30.7c4.4 0 7.5.4 9.4 1.3 1.8.9 2.8 2.9 2.8 6 0 4.7-2 8.5-6 11.2-4 2.8-9.7 5.2-17 7.5v.7a68 68 0 0 1 20.2 8.4c6.2 3.8 9.3 9.1 9.3 15.8 0 2.6-.5 4.5-1.5 5.7-1 1.3-2.2 2-3.8 2.4-1.5.3-3.6.5-6.2.5h-39.2c-1 0-2-.3-2.5-.9-.6-.6-1-1.9-1.3-4a204.7 204.7 0 0 1-.3-17.2l.7-22.4c.1-4 .3-7.3.6-9.6.4-2.3.8-3.7 1.4-4.4.6-.7 1.5-1 2.7-1Zm10.4 23.5a15.7 15.7 0 0 0 13.9-7.8c1.2-2.2 1.8-4.3 1.8-6.3s-.7-3.3-2-4c-1.4-.8-3.4-1.2-6.2-1.2l-6.6.3c-.6 5.9-1 12.2-1 19Zm.1 31.4a855.5 855.5 0 0 1 8 .3c3.2 0 5.6-.2 7.2-.4 1.6-.3 2.9-1 3.7-2 .9-1.1 1.3-2.9 1.3-5.2a21.4 21.4 0 0 0-9.4-15.9c-3-2.1-6.7-3.2-11-3.2a1410.7 1410.7 0 0 1-.2 10.7l.4 15.7Zm103.7-49.1 3.4 4a23 23 0 0 1-12 4.4c-3.5 0-7.2-2.2-11-6.7a39.7 39.7 0 0 0-3.6-3.6c-.8-.7-1.9-1.1-3.1-1.1-4 0-6.5 2.5-7.8 7.5-1.2 5-2 11.2-2 18.7 2-1.6 4.8-3.2 8.3-4.8a22 22 0 0 1 8.6-2.4c1.7 0 3.2.2 4.6.7 1.7.6 3.4 1.4 5 2.5 1.8 1 3 1.6 3.9 1.6 1.7 0 3.4-.7 4.9-2l2.5 3.4a44.7 44.7 0 0 1-10.4 8.7c-.8.4-1.9.6-3.3.6a11 11 0 0 1-6-2.1 37 37 0 0 0-5.2-3.1c-1.3-.6-2.7-.9-4.3-.9a13 13 0 0 0-8.6 3.7c0 6.7 1.6 12.2 4.8 16.5 3.2 4.4 7.6 6.6 13 6.6 4.9 0 10.4-2.3 16.5-6.7l2.5 2.7a30 30 0 0 1-23 9.8c-4.5 0-9-.8-13.7-2.5a27.1 27.1 0 0 1-12.3-9.3 32 32 0 0 1-5.8-18.5v-4.3a42 42 0 0 1 3.3-13.7c2-4.8 5-8.8 9.1-12.2 4-3.4 9-5.1 15-5.1s12.4 2.1 19.2 6.4c2 1.4 3.6 2.1 4.7 2.1s2-.3 2.8-1Zm44 53.8h-9.8c-3.9 0-7 .8-9.5 2.5a8.4 8.4 0 0 0-3.5 7.4 57 57 0 0 0 3.5 13.2l-6.6.9a86 86 0 0 0-9.9-18c-2.4-3.5-3.5-6.1-3.5-8 0-.6.2-1.2.8-1.8.6-.6 1.5-1 2.7-1h2.5c2.1 0 3.7-.3 4.7-.8 1-.4 1.9-1.2 2.6-2.2 1.5-2.3 3.4-6.4 5.6-12.3 2.2-6 4-11.9 5.6-18 1.6-6 2.5-10.3 2.5-12.7 0-2.1-.4-3.9-1.2-5.2-.6-1.1-.9-2-.9-2.9 0-.6 1-1 3-1a146.6 146.6 0 0 1 7.6.3 76 76 0 0 0 9.4-.4c.9 0 1.5.1 1.9.5.4.3.6 1 .6 2.4.3 6.4 2.1 15.3 5.7 26.7 2 6.2 3.6 11 5 14.6 1.3 3.6 2.4 6.2 3.3 7.7a8.3 8.3 0 0 0 2.2 2.9c.6.3 1.4.5 2.3.5l1.1-.1c1.1 0 2 .2 2.7.8.7.6 1 1.3 1 2 0 1.7-1 4.2-3.3 7.4-3.8 5-7.2 11.2-10.2 18.6l-6.6-1a38.7 38.7 0 0 0 3.5-13.1c0-4-1.6-6.7-4.9-8a27.5 27.5 0 0 0-10-1.9Zm-21.8-4.3h29a134.1 134.1 0 0 1-13-44h-2a192 192 0 0 1-14 44Zm92.2-25.5h-1.4c-2.7 0-5.4 1-8 2.8a12 12 0 0 1-7.2 2.3c-2.4 0-4.9-1.6-7.4-5a57 57 0 0 1-6.7-12 115.2 115.2 0 0 1-5.1-15.7c0-.6.1-1 .4-1.3.6-.6 1.8-1 3.6-1h10.6c1.3 0 2.3.4 2.9 1 .6.5 1 1.8 1.3 4a34.7 34.7 0 0 0 5.3 15.8c2.4 3 4.7 4.6 7 4.7h1.5c1.4 0 2.4-.3 3.1-1 .2-7.8.5-13.4.9-16.7.3-3.4.8-5.5 1.5-6.4.6-1 1.7-1.5 3.1-1.5a42.6 42.6 0 0 1 3.9.2c2.3 0 4.1-.1 5.3-.3h1.4c1.2.2 1.7 1 1.7 2.2 0 2.2-.2 4-.7 5.3-.4 1.3-.8 3-1 5.1a157.7 157.7 0 0 0 1 34.3c.3 3.7.6 6.7.6 9.2 0 1.4-.3 2.4-1 3-.5.4-2.1.7-4.7.7H892c-1.3 0-2.3-.3-2.8-.8-.6-.5-1-1.6-1.2-3.4-.2-1.7-.4-4.4-.5-8.2 0-3.8-.2-9.6-.5-17.3Zm83.9-24 3.3 4a23 23 0 0 1-11.9 4.4c-3.5 0-7.3-2.2-11.1-6.7a39.7 39.7 0 0 0-3.5-3.6c-.9-.7-2-1.1-3.2-1.1-4 0-6.5 2.5-7.7 7.5-1.2 5-2 11.2-2.1 18.7 2-1.6 4.8-3.2 8.4-4.8a22 22 0 0 1 8.6-2.4c1.6 0 3.2.2 4.6.7 1.6.6 3.3 1.4 5 2.5 1.7 1 3 1.6 3.8 1.6 1.8 0 3.4-.7 4.9-2l2.6 3.4a44.7 44.7 0 0 1-10.4 8.7c-.8.4-2 .6-3.4.6a11 11 0 0 1-6-2.1 37 37 0 0 0-5.1-3.1c-1.3-.6-2.8-.9-4.3-.9a13 13 0 0 0-8.6 3.7c0 6.7 1.6 12.2 4.8 16.5 3.2 4.4 7.5 6.6 13 6.6 4.8 0 10.3-2.3 16.5-6.7l2.4 2.7a30 30 0 0 1-23 9.8c-4.4 0-9-.8-13.7-2.5a27.1 27.1 0 0 1-12.3-9.3 32 32 0 0 1-5.8-18.5v-4.3a42 42 0 0 1 3.4-13.7c2-4.8 5-8.8 9-12.2 4.1-3.4 9.1-5.1 15-5.1 6 0 12.4 2.1 19.2 6.4 2 1.4 3.6 2.1 4.8 2.1 1 0 2-.3 2.8-1Zm48.3 32.7 4.2 3.3c-2.9 6-6.4 11.3-10.5 15.6-4 4.3-7.4 6.4-10 6.4-2 0-4.2-1-6.7-3.3-2.5-2.2-5-5.2-7.4-8.8a58.8 58.8 0 0 1-5.7-11.7c-1.5-4-2.2-7.9-2.2-11.3 0-4.9 1.2-9.9 3.7-15 2.4-5.2 5.3-9.5 8.7-13 3.3-3.5 6.1-5.2 8.3-5.2a72.4 72.4 0 0 1 18 8.3c1.7 1.3 2.6 2.5 2.6 3.6 0 .8-1.2 2.5-3.6 5a33.2 33.2 0 0 0-4.5 5.8c-.4.8-.8 1.2-1.1 1.2-.4 0-1.3-.9-2.7-2.8a23 23 0 0 0-15-9.6c-1.5 3-2.3 6.7-2.3 11.2 0 3.9 1 8 2.7 12.1 1.7 4.2 4 8 7 11.2 3 3.3 6 5.5 9.1 6.8a39.8 39.8 0 0 0 6.2-8.2l1.2-1.6Zm51.5 21.5c-.8 0-1.4-.3-1.8-1-.3-.7-.6-2.2-1-4.5-.5-3.6-1.5-7-3-10a27.2 27.2 0 0 0-5.9-8c-2.4-2.3-5-3.8-8-4.8 0 6.8.5 15.3 1.3 25.5 0 1.5-2 2.3-5.9 2.3h-6c-1.3 0-2.2-.3-2.8-.9-.6-.6-1-1.9-1.4-4-.3-2.1-.5-5.4-.5-9.8l-.2-19.4c0-7.7.2-13.4.5-17 .3-3.8.8-6.1 1.4-7.1.7-1 1.7-1.6 3-1.6l1.7.1a15.2 15.2 0 0 0 4.7 0l4.7-.2c1 .2 1.6 1 1.6 2a136.3 136.3 0 0 0-2 25.6h1c10.6-19 20.2-28.6 28.6-28.6 1.5 0 2.8.2 3.9.6 1 .4 1.6.9 1.6 1.4 0 .8-.3 1.7-1 2.7-.6 1-1.2 2.3-1.7 3.7-.5 1.4-.8 3.7-1 6.8l-.1 2.7-3.3.1c-1.2-2.6-3.1-4-6-4-2 0-4.5 1.2-7.3 3.6a33.2 33.2 0 0 0-7.2 8.5c-1 1.6-2 2.9-2.7 3.8 6 1.7 11 4 15.1 6.7 4 2.7 7.3 5.6 9.5 8.6 2.3 3 3.8 5.7 4.7 8.2 1 2.5 1.4 4.6 1.4 6.2 0 1.1-1.6 1.7-4.7 1.7a78.4 78.4 0 0 1-4.7-.4c-.4 0-1.4 0-3.1.3a44 44 0 0 1-3.4.2Zm40.3-28.7 21.8-19.3.6-8.8c.1-1.2.5-2 1-2.5.4-.5 1.4-.7 2.7-.7h11.2c1 0 1.6.7 1.6 2l-.6 5.3c-1 6-1.5 11.8-1.5 17.6 0 10.4.6 20.7 2 30.9 0 1.3-.3 2.3-.8 2.9-.6.5-2 .8-4.3.8h-7.6c-1.1 0-2-.4-2.8-1.3-.8-1-1.3-2.9-1.8-5.8-.4-3-.6-7.4-.6-13.2 0-7.2.2-14.5.6-22l-21.5 19.4a116.2 116.2 0 0 0 2 19.2c0 1.3-.2 2.3-.8 2.9-.5.5-2 .8-4.3.8h-7.5c-1.2 0-2-.3-2.7-1-.5-.6-.9-2-1-4l-.5-8a312.2 312.2 0 0 1-.4-35c.3-3.8.5-6.4 1-8 .3-1.5.8-2.5 1.3-3 .5-.3 1.2-.5 2-.5h11.4c1.1 0 1.7.7 1.7 2l-.6 5.3a205.2 205.2 0 0 0-1.5 24Zm93.9-53.7 2.8 1.8a31.7 31.7 0 0 1-8.3 12.1c-2.9 2.3-5.4 3.4-7.7 3.4-1.9 0-3.9-1.5-6-4.5-2-3-3.5-7-4.6-12l-.8-3.4 3.5-.9c2.1 6.2 5.4 9.2 9.6 9.2 5 0 8.4-1.3 10.3-4l1.2-1.7Zm-26.2 53.7 21.7-19.3.6-8.8c.2-1.2.5-2 1-2.5s1.4-.7 2.8-.7h11c1.2 0 1.8.7 1.8 2l-.7 5.3c-1 6-1.5 11.8-1.5 17.6 0 10.4.7 20.7 2 30.9 0 1.3-.2 2.3-.8 2.9-.5.5-2 .8-4.3.8h-7.5c-1.2 0-2.1-.4-2.9-1.3-.7-1-1.3-2.9-1.7-5.8-.5-3-.7-7.4-.7-13.2 0-7.2.2-14.5.7-22l-21.5 19.4a125 125 0 0 0 2 19.2c0 1.3-.3 2.3-.9 2.9-.5.5-2 .8-4.2.8h-7.6c-1.2 0-2-.3-2.6-1-.6-.6-1-2-1-4l-.6-8a312.7 312.7 0 0 1-.3-35c.2-3.8.5-6.4.8-8 .4-1.5.9-2.5 1.4-3 .5-.3 1.2-.5 2-.5h11.5c1 0 1.6.7 1.6 2l-.6 5.3a204.8 204.8 0 0 0-1.5 24Zm134.3-27h-19.3c-1.3 7.3-2 14.1-2 20.6 0 9.9.8 20.1 2.1 30.9 0 1.3-.3 2.3-.8 2.9-.6.5-2 .8-4.3.8h-7.4c-1.3 0-2.2-.3-2.8-.8-.6-.6-1-2-1.4-4-.3-2-.5-5.2-.7-9.6l-.1-19.7c0-7.8.2-13.5.5-17a18 18 0 0 1 1.5-6.9c.7-1 1.7-1.5 3-1.5h40.7c1 0 1.8 0 2.4-.2h2c2 0 3 .6 3 2.1 0 .9-.2 2.8-.7 5.9-.9 5.7-1.3 11.4-1.3 17.1a249.8 249.8 0 0 0 1.9 30.8c0 1.4-.3 2.4-.9 3-.5.5-2 .8-4.2.8h-7.5c-1.2 0-2.2-.3-2.7-.9-.6-.6-1-1.9-1.4-4-.3-2-.5-5.3-.6-9.7l-.1-19.5c0-8 .4-15 1.1-21Zm28.5 29.2a46 46 0 0 1 14-32.8c3.8-3.4 6.7-5.2 9-5.2 1.5 0 3.7.6 6.3 2a31.4 31.4 0 0 1 17.4 28.6c0 3.8-.7 8-2.3 12.3a60.9 60.9 0 0 1-6 12.5c-2.4 3.9-5 7-7.7 9.4-2.7 2.4-5 3.5-7.2 3.5-2.8 0-6-1.5-9.8-4.7a43 43 0 0 1-9.7-11.9 28 28 0 0 1-4-13.7Zm13-23.7c-2.6 3.4-4 6.8-4 10.3a31.9 31.9 0 0 0 11 23c3.9 3.3 8.5 4.9 14 4.9 1.5-2.8 2.2-5.9 2.2-9.4 0-4.6-1-9-2.9-13.2a27.9 27.9 0 0 0-8-10.6 22.6 22.6 0 0 0-12.2-5Zm57.6 40.5.5 4.3c.7 5.9 1.1 12.7 1.1 20.5 0 6.5-.7 11-2.1 13.4-1.4 2.5-3.4 3.8-6 3.8-1.6 0-2.6-.4-2.9-1.3v-.8a277.8 277.8 0 0 0-1.6-39.6l-1-10.4-.2-7.7a41.6 41.6 0 0 1 14.7-32.1c4-3.2 7-4.8 9.4-4.8 2 0 4.3 1.1 7 3.2a53.1 53.1 0 0 1 16 36.7c-.1 5-1 9.5-2.5 13.4-1.5 4-3.7 7-6.4 9.2a14.3 14.3 0 0 1-9.1 3.3c-3.2 0-6.4-1-9.6-3.3a23 23 0 0 1-7.3-7.8Zm3.6-42.6a31.2 31.2 0 0 0-5.4 19.8c0 5 .9 9.5 2.6 13.6 1.8 4 4 7 6.5 9.2 2.5 2.2 4.8 3.3 6.9 3.3 1.5 0 3-.7 4.4-2.1 1.4-1.5 2.2-4 2.5-7.8v-4.7a51.7 51.7 0 0 0-9-23.5 22.8 22.8 0 0 0-8.5-7.8Zm108.2 16.3-6.7-1c1.1-3 1.7-5.4 1.7-7.4 0-4.8-1.5-8-4.6-9.3-3-1.4-6.5-2-10.5-2h-2.3a418.1 418.1 0 0 1-.4 20.6 816.4 816.4 0 0 0 .9 31.4c0 1.3-.3 2.3-.8 2.9-.6.5-2 .8-4.3.8h-7.6c-1.2 0-2.1-.3-2.6-1s-.8-2-1-3.7a207.2 207.2 0 0 1 0-17.8v-5.5a425.8 425.8 0 0 1 .7-27.8h-2.3c-10 0-15.1 3.8-15.1 11.4 0 1.2.5 3.6 1.7 7.3l-6.7 1.1a60.3 60.3 0 0 0-7.4-15.2 11 11 0 0 1-2.2-5.7 5 5 0 0 1 1.1-3.3c.8-.9 1.7-1.4 2.6-1.4a155.1 155.1 0 0 0 24 1.5h23.7a155.7 155.7 0 0 0 24-1.5c1 0 1.8.5 2.5 1.4.8 1 1.2 2 1.2 3.3 0 1.6-.7 3.5-2.2 5.7a59.3 59.3 0 0 0-7.4 15.2Zm45.2 1c-.6-3.1-1.8-7.2-3.6-12.3a55 55 0 0 0-10.1 14c-1.8 4.1-2.7 7.2-2.7 9.4 0 2.1.6 4.1 1.8 6 1.3 1.8 3.2 2.7 5.7 2.7 2.3 0 4.2-.6 5.9-1.7a11.2 11.2 0 0 0 5-8.7c0-.7-.3-2.1-.8-4-.5-2-1-3.8-1.2-5.3Zm9.2 32.4c-1.4-6-3-11.7-4.9-17.2-4.2 13.8-11 20.7-20.2 20.7-3.4 0-6-.9-8.1-2.7a15 15 0 0 1-4.3-6.5c-.9-2.5-1.3-5-1.3-7.4 0-2.3.5-4.7 1.7-7.2a44 44 0 0 1 4.2-7.6 76 76 0 0 1 4.5-5.8 443.2 443.2 0 0 1 12.5-14c.5-.7.8-1.4.8-2 0-1-.3-2.5-1-4.4a9 9 0 0 1-.3-2.6c0-.5.9-.7 2.6-.7h13c.8 0 1.4.2 1.6.8v1.4a24.1 24.1 0 0 0 .8 4.6 511.8 511.8 0 0 0 15.4 51.5c0 .8-.8 1.2-2.5 1.2h-13.1c-.7 0-1.1-.7-1.4-2Zm47.4-47.4c-.6 1.8-1.8 4.9-3.8 9.3-2.9 6.6-4.8 11.4-5.8 14.6-.9 3.2-1.3 6.4-1.3 9.6a22.6 22.6 0 0 0 3.9 12.5c.6 1 1 1.6 1 2 0 1.1-.9 1.6-2.5 1.6a134.5 134.5 0 0 1-6.8-.1 54.3 54.3 0 0 0-6 .3c-1.7 0-2.8-.3-3.3-.8s-.8-1.7-.8-3.6c0-4.9 1.2-9.7 3.5-14.4a186 186 0 0 1 14.2-23.7c1.3-2 2.4-3.9 3.3-5.8 1-2 1.4-3.6 1.4-5 0-1-.3-2.3-.8-3.8v-1.6c.4-.7 1.2-1.1 2.6-1.1h11.5c1.7 0 2.8.2 3.3.6.4.4.7 1.3.7 2.7 0 4.8 1.8 12.9 5.5 24.3a334.2 334.2 0 0 0 11 30.1c0 .8-.3 1.3-.8 1.5-.5.2-1.4.3-2.8.3a85.3 85.3 0 0 0-10.4 0c-1 0-1.8-.2-2.5-.7a7.7 7.7 0 0 1-2-2.9c-.7-1.5-1.5-3.6-2.3-6.3a498.6 498.6 0 0 1-10-39.6ZM458.1 18.6h-16.7V9.4h67.8v9.2h-17.3l40.2 134.2h15v9.2h-65.4v-9.2h16.6l-16.4-56.4a134.1 134.1 0 0 1-19 45.6 66.5 66.5 0 0 1-15.2 16.7 28.6 28.6 0 0 1-17.4 6.3c-6.8 0-12.6-2.1-17.3-6.5-4.8-4.3-7.2-10.9-7.2-19.6 0-20.4 12.3-48.3 37-83.7a113.8 113.8 0 0 0 16-30c0-1.4-.2-3.6-.7-6.6Zm-28.7 98a16 16 0 0 0 4.2 10.5c2.5 2.8 5.3 4.1 8.2 4.1 5.5 0 10.7-3.2 15.5-9.7a109.8 109.8 0 0 0 18.3-45.8L465.8 41a304.5 304.5 0 0 0-21 33c-1.6 3-3.3 5.9-5 8.6a104.6 104.6 0 0 0-8.9 21.5c-1 4-1.5 8.2-1.5 12.6Zm151.4 29.7.8 7.4c1.3 10 2 21.6 2 35 0 10.9-1.2 18.5-3.6 22.7-2.4 4.3-5.8 6.4-10.1 6.4-3 0-4.6-.7-5-2.2v-1.3a454 454 0 0 0-2.9-67.5l-1.6-17.7c-.2-4-.3-8.3-.3-13a70.6 70.6 0 0 1 25-54.7c6.7-5.5 12-8.2 16-8.2 3.4 0 7.3 1.8 11.8 5.5 4.5 3.6 8.8 8.7 12.9 15a90.9 90.9 0 0 1 14.3 47.5c0 8.5-1.4 16-4 22.8a37 37 0 0 1-11 15.7 24.3 24.3 0 0 1-15.5 5.5c-5.4 0-10.9-1.8-16.3-5.5a39.2 39.2 0 0 1-12.5-13.4Zm6-72.6a53.3 53.3 0 0 0-9 33.8c0 8.6 1.4 16.3 4.5 23.1 3 6.8 6.6 12 11 15.8 4.2 3.7 8.2 5.6 11.7 5.6 2.6 0 5.1-1.2 7.5-3.7 2.4-2.4 3.8-6.8 4.2-13.1v-8a87.4 87.4 0 0 0-15.3-40A38.8 38.8 0 0 0 587 73.6Zm106-13h17c2.8 0 4.6.5 5.3 1.7.7 1.2 1.3 4.2 1.9 9.1 1.3 12.8 5.7 33.6 13.3 62.4a130 130 0 0 1 11-35.6c4-8.5 6-14 6-16.5a90.9 90.9 0 0 0-1.8-19.9c0-.8 1.7-1.3 5-1.3h18c2.7 0 4.4.3 5 .9.7.5 1 1.5 1.2 2.8 1 11.7 2.2 21.7 3.5 29.9 1.2 8.2 3.3 17 6.2 26.4 3 9.4 7 19.8 12.3 31.1 1.4 2.9 2 5.3 2 7.3 0 1.3-.4 2.2-1.1 2.5-.7.3-2 .5-3.7.5h-14.8c-3.5 0-7-3.5-10.6-10.5-3.6-7.1-6.7-15.2-9.3-24.4-2.6-9.1-4.4-16.7-5.4-22.6-.5-3.3-1-6.3-1.8-9-4 9.1-7.5 18.8-10.3 29a145.5 145.5 0 0 0-4.9 27.5v4.8c0 3.5-.6 5.2-1.7 5.2h-16.9c-2.3 0-4.2-.6-5.4-1.8-1.3-1.2-2.7-4-4.1-8.5-2.6-8.2-5-17.1-7.3-26.7-2.4-9.7-5-22.2-8-37.8a92.4 92.4 0 0 0-14.3 24.6c-3.5 9-5.3 17.4-5.3 25.3a34.8 34.8 0 0 0 2 12 219 219 0 0 0 4.1 11.4c0 1-.8 1.5-2.4 1.5h-19c-2.3 0-3.4-3.3-3.4-9.8 0-12.5 6.3-28.8 19-49a157 157 0 0 0 10.5-19c2-4.6 3-9.5 3-14.9v-5.8c.6-2 2.4-2.9 5.1-2.9ZM839.5 114l37-32.9 1.1-15c.2-2 .8-3.4 1.6-4.3.8-.8 2.4-1.2 4.7-1.2h19c1.9 0 2.9 1.2 2.9 3.5 0 .8-.4 3.8-1.2 9a177.2 177.2 0 0 0-2.6 30c0 17.7 1.2 35.3 3.5 52.6 0 2.3-.4 4-1.4 4.9-1 1-3.4 1.4-7.3 1.4H884a6 6 0 0 1-4.8-2.3 22.6 22.6 0 0 1-3-9.8c-.7-5.1-1.1-12.6-1.1-22.5 0-12.2.4-24.6 1.1-37.4l-36.6 33a206.4 206.4 0 0 0 3.4 32.7c0 2.3-.4 4-1.4 4.9-1 1-3.3 1.4-7.3 1.4h-12.8c-2 0-3.5-.6-4.5-1.7-1-1-1.6-3.3-1.8-6.8a536.4 536.4 0 0 1-1.4-73.3c.3-6.3.8-10.8 1.4-13.5.7-2.6 1.4-4.3 2.3-5 .9-.7 2-1 3.5-1h19.4c2 0 2.9 1 2.9 3.4l-1.1 9a347.7 347.7 0 0 0-2.6 41Zm121 4.8v-9.1c9.7-.1 17-2 21.6-5.7 4.7-3.6 7-10 7-19 0-5.8-1.3-10.5-3.9-14a13 13 0 0 0-11.2-5.3c-5.5 0-9.7 2-12.6 5.8a20.5 20.5 0 0 0-4.1 15.5c.3 1.1.4 2.2.4 3 0 2.2-3 4.2-8.7 6a60 60 0 0 1-17.3 2.6 31.7 31.7 0 0 1 6.2-24.3 38.7 38.7 0 0 1 17.5-12.1 68 68 0 0 1 42.4-1.2 33 33 0 0 1 14.5 8.8c3.7 3.9 5.5 8.9 5.5 14.8 0 9.6-3.1 16.5-9.5 20.6a56.5 56.5 0 0 1-24.5 8v1.3a222.8 222.8 0 0 1 5.3 1c22.3 3.2 33.5 12.6 33.5 28.2 0 8.8-2.7 15.8-8 21-5.4 5.4-13 8-22.7 8-5 0-11.2-1.3-18.7-4l-12.5-4.3a16 16 0 0 0-4.8-.6c-5.6 0-12 1.1-19.2 3.5-7.3 2.3-13.3 4.9-18 7.6l-4.6-5.5c6.4-7 11.8-12.1 16.2-15.5 4.5-3.5 9.7-5.2 15.4-5.2a15.6 15.6 0 0 1 9.6 3l4.2 2.9c4.7 3.3 10.3 5 16.7 5 4.2 0 7.8-1.7 11-5.2 3.1-3.4 4.7-8.7 4.7-16 0-5.9-2.1-10.6-6.5-14.2a22.9 22.9 0 0 0-15-5.4h-9.9Zm79.9-1a78.2 78.2 0 0 1 23.8-55.8c6.4-6 11.5-9 15.2-9 2.8 0 6.4 1 11 3.2a53.8 53.8 0 0 1 29.6 49c0 6.4-1.3 13.4-4 21-2.5 7.4-5.9 14.4-10 21.1a73 73 0 0 1-13.3 16c-4.6 4-8.6 6.1-12.2 6.1-4.8 0-10.4-2.7-16.8-8a73 73 0 0 1-16.5-20.3c-4.5-8-6.8-15.8-6.8-23.3Zm22.3-40.4a27.8 27.8 0 0 0-6.8 17.4 54.2 54.2 0 0 0 18.7 39.4 35.5 35.5 0 0 0 23.8 8.2c2.5-4.7 3.7-10 3.7-16a54 54 0 0 0-5-22.5 47.5 47.5 0 0 0-13.8-18c-6-4.8-12.8-7.7-20.7-8.5Zm138.4 28.8-34-5.9v13.5c0 9.5.1 16 .3 19.4l1 11.1c.5 4 .7 7.8.7 11.4 0 2.5-.6 4.2-1.8 5-1.1.9-4.4 1.3-9.8 1.3h-10.2c-2 0-3.3-.6-4.3-2-1-1.2-1.7-3.8-2.2-7.7-.5-4-.8-9.6-1-17l-.1-31.3c0-13.9.2-23.8.7-29.9.4-6 1.1-9.9 2-11.4 1-1.5 2.7-2.3 4.9-2.3a77.2 77.2 0 0 1 6.5.2c2.2 0 5.5-.1 9.8-.4h2.5c1.8.3 2.8 1.4 2.8 3.5-.4 4.8-.6 9-.7 12.7 0 3.6-.3 8.6-.6 15l33.5 6V88c0-8.4.3-14.5.8-18.3.5-3.8 1.3-6.3 2.4-7.4 1.1-1.2 2.8-1.8 5.1-1.8a60 60 0 0 1 6.5.2c4.5 0 7.9-.1 10-.4h2.5c1.9.3 2.8 1.5 2.8 3.5 0 1-.2 2.5-.7 4.7a132.9 132.9 0 0 0-3 34.7 324 324 0 0 0 2.4 41c.7 5.5 1 9.3 1 11.6 0 2.5-.5 4.2-1.7 5-1.2.9-4.4 1.3-9.5 1.3h-10.3c-2 0-3.6-.8-4.6-2.4-1-1.7-1.8-4.4-2.3-8.2-.4-3.8-.7-8.4-.8-13.7l-.6-31.5Zm115.7 20 7.2 5.7a101.5 101.5 0 0 1-17.8 26.5c-7 7.3-12.6 11-17 11-3.4 0-7.2-1.9-11.5-5.7a71.2 71.2 0 0 1-12.5-15c-4-6.3-7.3-13-9.8-20a57 57 0 0 1-3.8-19.2A59 59 0 0 1 1258 84a82.8 82.8 0 0 1 14.8-22.1c5.7-6 10.5-8.9 14.2-8.9 1.2 0 3.7.7 7.6 2.2 4 1.5 8 3.3 12.2 5.4 4.2 2 7.8 4.2 10.8 6.5 3 2.3 4.5 4.4 4.5 6.2 0 1.4-2 4.2-6.1 8.5a56.6 56.6 0 0 0-7.7 9.9c-.8 1.4-1.4 2-1.9 2-.7 0-2.2-1.5-4.6-4.7a39.1 39.1 0 0 0-25.7-16.3 43 43 0 0 0-3.7 18.9 54 54 0 0 0 4.5 20.7c3 7.2 7 13.5 12 19.1 5 5.5 10.1 9.3 15.5 11.4A68.3 68.3 0 0 0 1315 129l1.9-2.7Zm87.8 36.7c-1.4 0-2.4-.6-3-1.8-.6-1.2-1.2-3.7-1.8-7.6a55.9 55.9 0 0 0-5.2-17.1 46 46 0 0 0-10-13.6c-4-3.8-8.5-6.5-13.5-8.1 0 11.6.7 26 2.2 43.4 0 2.6-3.4 3.9-10.1 3.9h-10.2c-2.2 0-3.8-.5-4.9-1.5-1-1-1.7-3.3-2.3-6.9-.5-3.6-.8-9.1-1-16.6l-.1-33c0-13.2.2-22.9.7-29.2a32 32 0 0 1 2.5-12 5.7 5.7 0 0 1 5-2.6c.8 0 1.7 0 2.9.2a25.9 25.9 0 0 0 8.1-.1l8-.3c1.8.4 2.6 1.6 2.6 3.5 0 1.4-.4 4.8-1.2 10.2-1.5 9.9-2.2 21-2.2 33.4h1.7c18.1-32.6 34.4-48.9 48.8-48.9 2.6 0 4.7.4 6.6 1 1.9.8 2.8 1.6 2.8 2.5 0 1.3-.6 2.8-1.7 4.7-1.1 1.7-2 3.8-3 6.2-.7 2.4-1.3 6.3-1.6 11.6-.2 1.6-.2 3.1-.2 4.6l-5.7.2c-2-4.5-5.3-6.8-10-6.8-3.7 0-7.9 2-12.7 6-4.8 4-8.8 8.9-12.2 14.5a117 117 0 0 1-4.6 6.6 89.3 89.3 0 0 1 25.8 11.3 66 66 0 0 1 16.2 14.6c3.8 5 6.5 9.7 8 14a33 33 0 0 1 2.3 10.6c0 1.9-2.6 2.8-8 2.8a129.7 129.7 0 0 1-7.9-.6l-5.3.4-5.8.5Zm68.7-48.9 37-32.9 1-15c.3-2 .8-3.4 1.7-4.3.8-.8 2.4-1.2 4.7-1.2h19c1.9 0 2.8 1.2 2.8 3.5 0 .8-.3 3.8-1 9a177 177 0 0 0-2.7 30c0 17.7 1.2 35.3 3.5 52.6 0 2.3-.5 4-1.4 4.9-1 1-3.4 1.4-7.3 1.4h-12.9a6 6 0 0 1-4.8-2.3 22.7 22.7 0 0 1-3-9.8c-.8-5.1-1.1-12.6-1.1-22.5 0-12.2.3-24.6 1-37.4l-36.5 33a211.3 211.3 0 0 0 3.4 32.7c0 2.3-.5 4-1.4 4.9-1 1-3.4 1.4-7.3 1.4h-12.8c-2 0-3.6-.6-4.6-1.7-1-1-1.5-3.3-1.8-6.8a536 536 0 0 1-1.4-73.3 85 85 0 0 1 1.5-13.5c.7-2.6 1.4-4.3 2.3-5 .8-.7 2-1 3.5-1h19.4c1.9 0 2.8 1 2.8 3.4l-1 9a345 345 0 0 0-2.6 41Zm159.8-91.5 4.8 3a53.7 53.7 0 0 1-14 20.7c-5 3.8-9.4 5.7-13.3 5.7-3.2 0-6.5-2.5-10-7.6a59.5 59.5 0 0 1-8-20.3l-1.3-5.9 5.8-1.5c3.7 10.5 9.2 15.7 16.4 15.7 8.5 0 14.4-2.3 17.6-7l2-2.8Zm-44.7 91.5 37-32.9 1.2-15c.2-2 .7-3.4 1.5-4.3.9-.8 2.5-1.2 4.8-1.2h19c1.8 0 2.8 1.2 2.8 3.5l-1.1 9a177 177 0 0 0-2.6 30c0 17.7 1.2 35.3 3.5 52.6 0 2.3-.5 4-1.4 4.9-1 1-3.4 1.4-7.3 1.4h-13a6 6 0 0 1-4.8-2.3 22.6 22.6 0 0 1-3-9.8c-.7-5.1-1-12.6-1-22.5 0-12.2.3-24.6 1-37.4l-36.6 33a204.2 204.2 0 0 0 3.5 32.7c0 2.3-.5 4-1.4 4.9-1 1-3.4 1.4-7.3 1.4h-12.9c-2 0-3.5-.6-4.5-1.7-1-1-1.6-3.3-1.8-6.8a536 536 0 0 1-1.4-73.3c.3-6.3.8-10.8 1.5-13.5.6-2.6 1.4-4.3 2.3-5 .8-.7 2-1 3.5-1h19.4c1.9 0 2.8 1 2.8 3.4l-1 9a352.1 352.1 0 0 0-2.6 41Z" fill="#fff"/><path stroke="#fff" stroke-width="12" d="M398 245h1269"/><path d="M249 227.4c-1.3 0 .4.8.6 1 .4-.4 0-1-.6-1Zm8.6 84.2-.7-.6-.5.7.6.5.6-.6ZM251 200l-.6-.5-.6.6.7.5.5-.6ZM181 318.2c.9 0 2.5-.5 2.7.2-.9.2-2.5.6-2.7-.2Zm74.6 17c0-.5.5-1.1 1-1.3l.2 1.8c-.6.3-1-.1-1.2-.5Zm-62.2-191.8c-.6-.1 0 1.3 0 2 .4 0 .6-.6.8-.8.5-.5 0-1-.8-1.2Zm1.3 164.5 1.8-.1c.2.5-.2 1-.5 1-.5.2-1.1-.3-1.3-.9Zm-4.7 1.8c-.4 0-.8.4-1.1 1 .2.3 1.2 0 1.8 0 .2-.6-.3-1-.7-1Zm26-28.3c.3.8 1.1 1.4 1.9 1.7l-.2-1.9-1.8.2Zm50.7 8.3.1 1.9c.7-.4 1.1-1.2 1.7-1.9-.3-.3-1.3 0-1.8 0Zm-20.7 26.5.1 1.2 2.5-.2c-.2-.5-.7-1-1.2-1.1h-1.4Zm-108.1 38.5c-.4-.1-.4-.6-.3-.9.2-.4.8-.8 1.3-.7l.2 1.8c-.4.1-.8 0-1.2-.2Zm105.8-45c.4.5 1.2 1 1.8.8.2 0 .5-.5.6-.7l-1.9-.7-.5.6Zm14.9 1.8c-.2.4-.3.8-.2 1.2l1.8-.1c0-.5-.2-.9-.4-1.2-.3-.4-1-.4-1.2 0Zm-20.8-153.7.1 1.1 3.1-.2c-.2-.5-.9-.6-1.3-.8-.6-.2-1.3-.3-1.9-.1Zm-75.9 125.8-2.4.2.1 1.2 2.4-.2-.1-1.2Zm-51.5-68.4c0 .7.9 1 1.6 1.7.3-.2 0-1 0-1.6l-.6-.6c-.5-.4-1 0-1 .5Zm108.4-24.4c-.4.1-1.2 1.2-1.6 1.6.2.4 1.1.3 1.6.1.3-.1 1.1-1.3 1.5-1.7-.2-.3-1-.2-1.5 0ZM29.5 20.8l-2.3.1c-.2.6.2 1.2.7 1.4.4.2.8 0 1.1-.4.3-.3.8-.7.5-1.2ZM242.1 223H241c0 .5 0 1.7.2 2 .1.3.8.8 1 1h.3l-.3-3Zm50.7 133.2c-.5 0-.9-.7-.7-1.3l2.3-.2c.1.4 0 .9-.2 1.2-.2.6-1 .4-1.4.3Zm6-12.7c.1 1-1 1.1-1.9.8-.3 0-.1-.8 0-1.3 0-.5.9-.4 1.3 0 .2 0 .6.4.6.5ZM131.3 174.7c-.4 0-1.6 0-2 .2a2 2 0 0 0-.5.6c-.3.7.3 1 .8 1.2l.9-.1.6-.7c.3-.3.4-.8.2-1.2ZM105.5 119c1.3-.3 2.6-1 3.1-2 .3-.6 0-1-.5-1.2-.9.7-1.6 1.8-2.4 2.7l-.2.5Zm85.3 86.3c.3.7 1 1.3 1.7 1.6l.6-.7a6 6 0 0 0-2.5-2.8c-.3.3-.1 1.4.2 2ZM271.4 12c-.2.8.2 1.6.7 2.3.3.4 1 .4 1.2-.1.1-.8-.3-1.6-.8-2.3-.3-.5-1-.4-1.1 0ZM153 113.2c-.2 0-.8.8-.9 1 1.2 1 3.5.3 4.1-1.2-.7-.1-2.3.1-3.2.2ZM263.9 311l-.7.7-2.6.2.1 1.2c1.5-.3 2.7-.3 3.5 0 .4 0 .4-.6.3-1 0-.2-.5-.9-.6-1ZM105.6 113c-1.1.7-2.4 1.4-2.8 2.7-.4 1 1 .5 1.3.3a3 3 0 0 0 1.6-1.5l-.1-1.5Zm141.3 116.3c-.6-.1-1.2.3-1.3.7-.3.9.2 1.7.7 2.4.2.4 1 .3 1.1-.2v-1.1l-.5-1.8Zm-73.5 53.3-2.2.2c-.2 0-.6.5-.6.7 0 .3 0 .9.3.9l3-.3c.4 0 .3-.6.2-1l-.7-.5Zm48.4-85.8a2 2 0 0 0-.5.7v1l.7.7 1.2-.1c.2 0 .5-.6.5-.8v-1a2 2 0 0 0-.7-.6h-1.2ZM33.1 25.2l-1 .1-.6.7.1 1.2.7.5h1l.7-.7-.1-1.2a2 2 0 0 0-.8-.6Zm167 112.3c0 .4-.3.8-.1 1.2l3.6-.3-1.1-1.8c-.9-.6-2 .1-2.3.9Zm-44.5-2.8-6.2.5c.5 1 2.4.7 3.3.9l3-.2v-1.2Zm53.4-3.4-2 .1c-.6.7-1.6 1.4-1.5 2.6.4 0 1.4 0 1.6-.2.7-.3 1.6-.5 2-1.1.1-.2-.1-1.1-.1-1.4Zm-97.3-10.6a9.6 9.6 0 0 0-2.6 3.8l1-.1c.6-.7 1.5-1 1.8-1.5.5-.7 1-1.4.6-2-.1-.4-.6-.3-.8-.2Zm61.3-10.5c.3.5 1.7 1.5 2.2 1.7l1.3-.1v-1.4a7.1 7.1 0 0 0-2-1.8c-.7-.2-1.8 1-1.5 1.6Zm-52.3 126.3c0 .8.6 1.2.9 1.8l1-.1c.3-.3.8-.6.9-1.1l-.2-1.6-.5-.5c-1.4-.5-2 .7-2 1.5Zm81.8 107-2.1.1c-1.6-.1-4.1 0-6-.6 2.4-.4 4.2-.6 5.8-1.2.3-.1 1 .3 1.6.5.4.2.8.6.7 1.1ZM244 157.7c-1 .1-1.9.7-2.6 1.2.7.6 1.7.9 2.8 1.2l2.7-.3c-.2-.5-.8-.8-1.3-1-.5-.4-1-1-1.6-1Zm-22 196-4.8.4-.2-1.8 3.8-.3.7.5c.3.3.5.8.4 1.2Zm-149.5 6c-.2.7-.5 1.4-1 2 0 .2-.7.2-.9.2-.4-.1-.8-.6-1-1-.1-.2-.3-1.2-.2-1.5.1-.2.9-.7 1.1-.8.3-.1 1-.2 1.2-.1.4.2.9.5.8 1.1Zm146.6-137.2c-.4 0-1.8 0-2 .2-.7.8-1.4 1.6-2 2.7-.3.7 1.7.6 2 .1a7 7 0 0 1 2.1-1.6v-1.4Zm-15.5-18.8a7 7 0 0 0-1.6 2l.1 1.4c.4 0 1.7 0 2-.2.8-.6 1.3-1.7 1-3.2-.2-.4-1-.2-1.5 0Zm-45.4 151c-.8.1-1.4-1.2-1.2-1.7.2-.8.1-1.8.2-2.8l1.8-.1.2 2.7c0 .8-.3 1.9-1 2Zm54-169.5c.1.3 0 1.7.3 2 .8.6 1.5 1.5 2.7 2 .8-.3.1-2.4 0-3.4 0 0-.3-.5-.7-.8-.5-.3-1.4.1-2.2.2Zm-53.3-32.8-3.2.2c-.2 0-.7.6-.7.7 0 1.3 1.2 2.4 2.3 2.5.8 0 1.2-.5 1.8-.9l-.2-2.5Zm67.6 42.4c.2.7 1.2.8 2 1 1.3.1 2.9.1 4 .5.4.1.3-1 .2-1.5 0-.1-.6-.5-.8-.5l-2.7.2c-.2 0-.9-.7-1.1-.7-.7-.2-1.8 0-1.6 1Zm34 88.6v.9l.7.6 1.1-.1c.7-.8 1.8-1.2 2.4-2 0-.2 0-.9-.2-1 0-.2-.5-.7-.6-.7-1.9 0-2.7 1.1-3.4 2.3Zm-24-67.6c-.5-.1-1.2.8-1 1.2.6 1.2 1 2.2 1.8 2.8.3.1 1.4 0 1.6-.2.3-.1 1-1 1.2-1.3.3-.6-.4-1-.9-1.1h-.8a2 2 0 0 1-.8-.5c-.3-.4-.6-1-1-1ZM136.5 364.2l-5 .4c-.2-.7.2-1.5.9-1.8 1.4-.6 3-1.1 4.9-1l.1 1.3c-.1.5-.6 1-1 1ZM98.9 259.8c-.3.2-1.2 1.3-1.3 1.6-.2.9.2 1.7.7 2.4.4.5 1.1.3 1.6.1.2 0 1-1 1-1.4.1-.4 0-1.7-.2-2.1 0-.2-.4-.7-.6-.7l-1.2.1Zm-38-203.2-1.3.1c-.7.8-1.5 1.5-2 2.3-.2.2 0 1 0 1.1l1.3 1.2c.2 0 1 0 1.2-.2.3-.1 1.1-1 1.1-1.3l-.2-3.2Zm153.8 138.5a16 16 0 0 0-5.6 4.3c-.3.3-.3.8-.2 1.2.4 0 1.7 0 1.9-.2 1.5-1.1 2.5-2.6 3.8-4l.2-.6c.7-.6-.3-.7-.1-.7ZM119 208.4c-.4.2-.8.6-1 1 0 .2 0 1 .2 1 .7.5 1.3 1.3 1.7 2 .3 0 1.5.1 1.6 0 .5-.6.8-1.5.8-2.5 0-.7-1-1.3-1.8-1.7-.2-.1-1.2 0-1.5.2Zm91 138.5c.1.1.2 1.2.1 1.5 0 .5-.5.8-1 1a2 2 0 0 1-.9.2c-.3-.2-1.2-.8-1.3-1.1-.4-.8-1-1.6-1.2-2.5.6-.3 1-1 1.7-.9 1.1.3 1.9 1 2.6 1.8Zm-94.3-221.6c-1.7.6-3 1.7-4 3-.4.4-.3 1.1-.1 1.7 0 .1.5.5.7.5.3.1 1.5.1 1.7-.1l1.8-3c.2-.3-.1-1.6-.1-2Zm-2.2 86.5.1 2c1 .8 1.6 2 2.8 2.9.5.4 1.5-1 1.4-1.5-.1-.9-.6-1.6-1-2.5a4 4 0 0 0-1.3-1c-.4-.1-1.7.1-2 .1Zm-1 34c-1.4.3-2.7 1.3-2.2 3l.5 2c1.3-.5 2.4-1.3 3.4-2 0-.5 0-1.8-.2-2.3l-.6-.6c-.3-.2-.6-.2-1-.2ZM55.7 303h-1c-.4.4-1.5 1.6-1.7 2v1.2c.3.3 1.2 1 1.5 1 1.3.1 2.3-.5 3.1-1.2-.2-.9-.8-1.7-1.2-2.5 0-.1-.5-.5-.7-.5Zm152.5-95.2c-1 1-2 2-2.7 3.1-.2.1 0 .9 0 1 .2.3 1 1 1.4 1.2h1.1c.5-.4 1.6-1.7 1.6-2 0-1.2-.3-2-.8-2.6 0-.2-.5-.5-.6-.7Zm-80 149.8-3.9.4a7 7 0 0 0-2 1c-.2.3-.7 1.2-1 1.4-.2 0-1 .2-1.3 0-.5-.1-.2-1-.3-1.5l3.4-2c1.4 0 2.5-.5 3.5-1 .6-.2 1 .3 1.2.6.4.3.5.7.5 1.1ZM20 359.7l2-.1c0 .5.4 2.3.1 2.5l-2 2.3c-.5.6-1.4 0-2-.3l-.2-1.8c.7-.9 1.2-1.9 2-2.6Zm214.6-164.3.1 1.1c.7.8 1.7 1.3 2.8 1.2.4 0 1.2-.5 1.8-.2 1.4.7 3.4 1.1 5.6 1-.9-.6-1.4-1.5-1.9-2.2-2.9 0-5-.4-7.6-.4-.2 0-.6-.4-.8-.5Zm44.1 102.9c-.5 0-2.1 0-2.4.2-1.4.7-1.7 3.3-.3 4.2l2.7-.2.6-1.2-.1-1.2c0-.4-.4-1.5-.5-1.8ZM63.5 359.4l.3 3.4c0 .1-.4.7-.6.7a3 3 0 0 1-1.2.1 2 2 0 0 1-.6-.6l-.1-1c-.3-.4-1.5-1.1-1.6-1.4-.2-.5-.4-1.2.1-1.6.7-.5 1.5-1 2.4-.7.3 0 1.2.8 1.3 1.1Zm134.8-162c-.5.7-1 1.6-.8 2.7 0 .8.4 1.6 1 2 .3.1 1.4 0 1.6-.2.6-.4 1.3-1 1.5-1.6.1-.3 0-1.4-.2-1.6a6 6 0 0 0-1.6-1.5c-.3-.1-1.5 0-1.5.1Zm-54.1 133.3c-.6.3-1.2.5-1.5 1l.1 1.2c.1.1.6.5.8.5l3.4-.3c.3 0 1.3 1.2 1.7 1.3.6.3 1-.3 1.1-.8 0-.2 0-1.2-.2-1.5-.2-.4-.5-.9-1-1l-3.5-.2c-.2 0-.6-.3-1-.2ZM97.8 121.3l-3.5 4.1c-.1 1.4.7 2.5 1.6 3l.8-.1a5 5 0 0 0 2-3.6l-.3-.8c-.2-.4-.4-1.9-.6-2.6ZM64.1 275.8c0 .4 0 1.8.2 2.2l1.4 2.6c.1.2 0 1 .2 1.2.2.4.6.8 1 1 .3 0 1.3 0 1.6-.2.2 0 .6-.5.7-.7l-.1-.8c-1.4-1.8-2.2-3.9-3.7-5.1-.4-.3-.9-.4-1.3-.2Zm42.3-55.9c0 .4 1.6 1.4 1.9 1.8l.1 1c.3.4.6.8 1 1l1-.2c.4-.3.9-.6 1-1 0-.3 0-1.5-.2-1.6-1-.7-2-1.8-2.5-2.8-.3-.4-1.8-1.1-2.3-1-.6.3 0 2 0 2.8Zm149.1 53c-.9 1.3-2.5 2-3.4 3.3l.1 1 .8.8c2.2-1 4.1-2.5 5.5-4.2.2-.2 0-1 0-1l-.6-.7c-1-.2-1.9.2-2.4.8Zm-196.9-7c-.1 0-.8 0-1 .2l-.6.6.1 1.1c.7 1.3 1.3 2.5 2.4 3.3v1l.7.7 1.2-.1c.2-.1.6-.6.6-.8 0-.3 0-1.4-.2-1.7-.6-1.5-1.6-2.5-2.4-3.7-.1-.1-.6-.5-.8-.5Zm183.6-32.3c-1.8 1-3 2.3-4 3.8l.1 1c.1.2.6.6.8.6.4 0 2 0 2.2-.2l2.6-3c.1-.2-.1-1.3-.2-1.6 0-.2-.5-.6-.7-.7-.2 0-.9.2-.8 0Zm29.2 58c-.7.9-1.5 1.6-2 2.4-.2.2 0 1.4.1 1.6.5.6 1 1.3 1.7 1.5.4.2 1.8 0 2.1-.2.4-.2.9-.6 1-1l-.1-1.2-1.9-3.1h-1Zm-101.9-.2-.7.7.1 1.2.8.5c2.1-.3 4.5-.4 6.1-.1.2 0 .8-1 .8-1 .4-1.4-.7-2-1.5-2-1.7 0-3.6.8-5.6.7ZM234 208l-3.2 1.8c-.2.2 0 1.5.2 1.8.3.7.5 1.6 1.1 2 .2.1 1.4 0 1.5-.2l2.1-2.3c.2-.3-.1-1.8-.2-2.2 0-.2-.5-.5-.6-.7-.3-.2-.6-.3-1-.2Zm-127.4-75.6c-1.1.7-2 1.5-3.6 1.9-.3 0-1 1-1 1.1-.5 1.4.6 2 1.5 2.1.7.1 1.3-.3 1.7-.7l2.3-2.7c.3-.5 1.3-.6 1.6-1.4 0-.1 0-.8-.2-1l-.6-.7c-.8-.2-1 1-1.7 1.4Zm124.5 110c-.2 0-1 1-1 1.3-.1.3 0 1.3.2 1.5.2.4.5.9 1 1l1.1-.1c1.1-.6 2.2-1.1 3.1-1.8.3-.2 0-1.9-.2-2.2-.1-.3-1-1.4-1.3-1.3-1 .2-2 1-2.9 1.5Zm61.3-220.6c-.3.2-1 1.1-1.1 1.4v1.2l1.1 2 1.5 1.1c1.3.5 2-.6 2-1 0-.6.4-1.2.3-1.4 0-.4-.8-1.6-1-2a7.9 7.9 0 0 0-1.7-1.4l-1.1.1ZM35.8 30.3c-.9.6-1 1.8-.6 2.6 0 .3 1 1.1 1.3 1l3.3-.2c1-.9.6-2.1-.1-3.5 0 0-1.2-1.3-1.5-1.2-1 .2-1.9 1-2.4 1.3Zm98.6 193.3c-.5.6-1.3.8-1.7 1.3l-3.6 4.3c-.2.3-.3.8-.2 1.2l1.4-.1c.4-.3 1.4-1.8 1.9-2a9 9 0 0 0 4.1-2.4c.2-.3 0-1.5-.1-1.7-.1-.2-.5-.7-.7-.7l-1.1.1Zm11.5 74.5c-.4.1-1.1-.3-1.2-.3-.8.4-1.7.5-2.3 1.8 1.9.1 5-.3 6.8-.4.5 0 1.9.5 2.2.3 1-.4 2-.5 3.3-.8l-.2-1.6a20 20 0 0 0-8.6 1ZM283.3 12l-1 .1c-.3.2-1 1-1.3 1.5.9 2.4 2.8 4.2 5 5.1.7.3 1-.3 1.2-.8a4 4 0 0 0-.1-1.5l-1.6-1.5-1.5-2.3-.7-.5ZM48.9 42.4c-.8 1-1.6 2-2.8 2.7l.1 1.6c.5.6 1 1.2 1.7 1.5.3 0 1.5 0 1.6-.2.7-.8 1.5-1.5 2.1-2.4l-.9-2.7-.6-.6c-.3-.1-1.1 0-1.2.1Zm171.7 185c-.6.8-1.4 1.5-2 2.4-.1.1 0 .8.1 1 .9.4 1.8.7 2.3 1.3.6.5 1.8.4 2.7.2 0 0 .5-.6.5-.8l-.3-3.3c0-.3-1-1.2-1.4-1.3-.6-.2-1 .7-1.9.5Zm-107.4-1.6-.6.7c.1 1.8.8 3 1.6 4 .8.7 1.1 1.8 2 2.3.3.2 1.6-.1 2-.2l-.2-2.8c0-.4-.8-1.6-1-1.9l-2.8-2.2-1 .1Zm-33-141c-.4.6-1.4.8-1.6 1.6-.1.2 0 1.3.2 1.5.4.6 1 1.2 1.6 1.5l1-.1c.7-1 1.7-2 2.7-2.6.6-.3 1-1.3.6-1.9-.2-.3-1.2-1.3-1.5-1.3-1.4-.2-2.5.5-3 1.4ZM60.8 296c-.5 1.5-1.5 2.5-2.5 3.6-.2.3.2 2.1.2 2.7.6 0 2.5 0 2.7-.3.7-1 1.6-1.8 2.4-2.5.5-.5.8-1.5.5-2a5.5 5.5 0 0 0-1.7-1.6c-.2-.1-1.3.1-1.6.1Zm65-81.2c-.3.1-.7.8-1 1 .5 1.2 1 2.4 1.6 3.4l3 2.6c.5.4 1.3-1 1.6-1.6.2-.3 0-1.7-.2-2.1-.4-1-1.6-.8-2-1.4-.7-.8-1-1.6-2-2h-1Zm87.5 0c-.3 0-1.3 0-1.5.2-.6.4-1.3 1-1.5 1.6-.2.4 0 1.5.1 1.9l1 1.9c.3.2 1.2 1 1.5 1h1c.8-1 1.5-2.2 1.2-4.2 0-.3-.8-1.5-1-1.9-.1-.1-.6-.5-.8-.5Zm15.5-14.1a13 13 0 0 0-4 2.6c.1 1 .7 1.8 1.1 2.6.1.3 1 1 1.4 1h1.1c1.2-.8 2.6-1.2 3.4-2.2.5-.5 0-.8-.4-1-.8-.5-1.6-1.2-2.5-1.5l-.1-1.5ZM36 286l.2 3.1c1.5 1.2 2.5 3 4 4 .1.2 1 0 1.2 0l.8-1v-1.2c-1.3-2-2.5-3.7-4.1-5-.3-.3-1.7 0-2.1.1Zm197.2-135.7c-.6.5-1.2 1-1.5 1.7l.1 1.4c2.5.1 4.5.9 6.5 1.3.6 0 1.9-.3 2.3-.2.3.1.6.6 1 .5 0-.3.1-1.4-.1-1.6l-3.6-2c-.4-.2-1.3-.1-1.6-.2-.3-.2-1.2-1-1.5-1-.3-.1-1.3 0-1.6.1ZM90.6 275.7l.2 1.8c0 .3-.3 1.3-.6 1.6-.7.8-1.8 1.3-3 2l-2.7.1-.1-.9c.2-1.9 1.5-3.1 2.7-4.4.3-.3 1.5-.9 2-1 .3-.2.6 0 .8.1l.7.7Zm162.3-12-1 .1a15 15 0 0 0-5.5 5.5l.1 1 .9 1.3c1.3-.5 2.4-1.3 3.6-2a7 7 0 0 0 1.3-1.6l.8-2-.2-2.3ZM82.3 357c.1.6-.5 1.2-.2 2l-2.2 1.4c-.5.3-1.3 1.7-1.7 2H77c-.2 0-.7-.4-.7-.6l-.3-3.4c0-.4.6-.8 1-1l1-.1c.6-.4.8-1.3 1.2-2 .3 0 1.3-.2 1.6-.1l.7.5.8 1.3Zm116.2 10.4-.2-1.8 3-.9 12.6-1 .1 1.7-9.6.9c-1.9.3-3.6 1-5.9 1ZM227.3 234c-.7.8-1.5 1.5-2 2.3-.3.3 0 2 .1 2.2.9.6 1.3 1.6 2 2.4h1.1c1-1.2 2-2.1 2.5-3.5 0-2-1.1-2.9-2.3-3.5l-1.4.1Zm-131-5.3-2.4 1.5c-.2.1 0 2 .3 2.1.8.6 1.4 1.5 1.9 2.3.3.5 1.2.8 1.9.6a5 5 0 0 0 2.2-2.2v-1.1l-1.2-2a7.7 7.7 0 0 0-1.6-1.3c-.2-.1-1 0-1.1.1Zm-25.9-159c-.5.9-1.6 1.3-2.4 1.8-1 1.7 0 4 1.2 4.6.5.3 1.2.3 1.4 0 1.2-1 2.2-2.5 3.1-4 .2-.2 0-1.4-.2-1.7 0-.2-.4-.6-.7-.8-.6-.3-2-.3-2.4.2Zm29.2 290c-.2.7-.9 1.2-1.5 1.7a2 2 0 0 1-1 .1c-.4-.1-1-.6-1-1l.3-3.6c-.4-2 .3-3.4 1.2-4.4.2-.2 1.4-.3 1.6-.2.2.1.9 1 .9 1.2-.1 2-.1 4.3-.5 6.2ZM286.6 27a3 3 0 0 0-1.2 2.5l3.5 3.8c.2.3.6.9 1.2.6.6-.5 1.6-.6 2-1.4.1-.7.8-1.7.4-2l-3.3-2.9a5 5 0 0 0-1.2-.5c-.5 0-1-.4-1.4-.1Zm-165 191.4c-.5.5-1.2 1-1.4 1.7-.1.3 0 1.5.1 1.8.2.4.8 1.6 1.1 1.9l2.3 2c.1 0 1 0 1.2-.2.4-.3 1.3-1.6 1.7-2.2-.9-2-2.3-3.8-3.9-5.1-.1-.2-.9 0-1 .1Zm-77 76.6c-.5.2-1 .5-1 1-.1.3 0 1.5.1 1.6l4.3 3.7c.2.2 1.8 0 2.2-.2l1.2-1.3-.1-1.2c-1.5-1.6-3.6-2.5-5.4-3.8 0 0-1.1 0-1.4.2ZM275.8 18.7c.6 1.8 1.7 3 2.8 4.4.3.4 1 .3 1.5.8.1.2.5 1 .8 1.1.1.1.8 0 1-.1.5-.5 1.2-1 1.4-1.7.1-.3 0-1.4-.1-1.6-.3-.4-1.6-1.4-2-1.7-.2-.2-1-.4-1.2-.5l-2.7-2.3c-.5-.4-1.6 1.2-1.5 1.6ZM251 235.3c-1.5 1.2-.2 3.3.7 4.4.2.3 1 1 1.4 1.1h1c.3-.3 1-1 1.2-1.4l1-2.5h1c.3-.1.6-.6.7-.7.3-.6-.4-1-.8-1.1l-3-.4a3.4 3.4 0 0 0-3.2.6ZM215.2 71.7c-.6.4-1.2.9-1 1.5.6 1.6 1.6 2.5 2.5 3.7l2 2.7c.5.5 1.1.5 1.5.3.7-.3 1.4-.6 1.7-1.4v-.8c-1.3-1.7-2.7-2.9-3.8-4.4a9.3 9.3 0 0 0-2-1.7l-1 .1ZM90 249.5c-.4.2-.8.5-1 1 0 .2 0 1 .2 1.2.1.4.7 1.7 1.1 2 1.3.7 2.2 2 3.1 3.3.1.1 1 0 1.2-.2.5-.5 1.2-1 1.5-1.6l-.1-1.3a7 7 0 0 0-1.1-1.9l-3.3-2.7c-.2-.2-1.3 0-1.6.2Zm18.8-19.2-2 2.3c-.2.3 0 1.5.1 1.7l2.6 2.3c.6.5 1.5.7 2.2.6.7-.2 1.7-.4 2-1 .2-.4 0-2-.2-2.3l-3.6-3.7c-.1-.1-1 0-1 .1ZM31 36.4c-1.4 1.5-3.4 2.5-4.5 4.3-.2.3.2 2 .3 2.6.5 0 2.3 0 2.5-.2 1.2-1.5 2.8-2.7 4.4-3.8 0 0 .5-.5.5-.7 0-.4 0-1.8-.3-2.1a3 3 0 0 0-1.3-.7c-.6-.1-1.3.4-1.6.6Zm20.6 15c-.1.1 0 1.3.2 1.5.3.9.6 1.9 1.2 2.1.9.4 1.7 1 2.7.9.7-.8 1.5-1.6 2-2.4.2-.2 0-1.5-.1-1.8-.4-.8-.7-1.7-1.3-2.1-.3-.3-1-.6-1.3-.6-1.9 0-2.8 1.1-3.4 2.4ZM188.6 191c-.4 0-.8.5-1 1l.1.7c1.2 1.6 2.3 3.1 3.9 4l.7-.1c1.2-1 2.6-1.8 3.3-3 .2-.3 0-1.4-.2-1.6-.5-.5-1.2-.8-2-.9-1.5-.1-3-.3-4.8-.1ZM43 48.5h-1c-1.1 1.4-2.8 2.2-4.3 3.1-.2.1-.6.7-.6.8l.2 2.7c0 .6 1 1.3 1.6 1l2-1 2-2.4 1-.1c.4-.3.8-.6 1-1 0-.2 0-.9-.2-1l-1-1c-.1-.2-.5-1-.7-1.1ZM20.2 24.9l-2.5 2.9h-1l-.5.6c-.4 1.4.6 2.5 1.6 2.6a3 3 0 0 0 2.8-1.3l3-2.2c.2-.1.9-1 1-1.3l-.1-1c-.3-.3-1.5-1.6-1.8-1.5-.9.1-1.7.8-2.5 1.2Zm23.5 10.3-2 1c-.3.3-1.2 1.3-1.2 1.7-.2.8-.1 2 .5 2.5.7.6 1.4 1.5 2.3 2.1 1-.2 1.7-.8 2.5-1.2.3-.1 1-1 1-1.4.2-.4 0-1.8-.2-2.1l-1.6-2c-.3-.4-.7-1-1.3-.6Zm40.5 205.6c-1.3.5-2.5 1.3-3.7 2a2 2 0 0 0-.5.6c0 .3 0 1.6.2 1.7 1.8.9 3.2 2.3 5.4 2.9.7.2 1.5-1 1.9-1.8.1-.2 0-1.4-.2-1.5-1-.7-1.3-2-2.3-2.7l-.8-1.2ZM274.9 38.2c-.6.7-1.3 1.3-2 1.8v1.3c1.2 1.6 2.3 3.1 4 4 .7-.2 1.5-.8 2.2-1.2.6-.4 1.4-1.1 1.2-1.7-.1-.6-.8-1.9-1.3-2.3-.8-.8-2.2-1-3.2-2l-1 .1ZM27.5 29.3l-.8.1c-2 1.3-3.3 3-5 4.4-.1.1-.6.5-.6.7l.1 1.6c.2.3 1 1 1.4 1.2.6.1 1.3-.4 1.6-.6 2-1.3 3.5-2.8 4.7-4.6.4-.6-.1-1.6-.7-2.2l-.7-.6Zm74 193.3c-.5.4-1.5 1.1-1.4 1.7.5 1.7 1 3.4 1.8 4.8l1 .8h1c1.2-1 2.4-1.7 3-3-.1-.8-.7-1.6-1.1-2.4l-2.7-2.1c-.2-.2-1.3 0-1.5.2Zm35.6-74.9-6.4.6c-.8.6-1.4 1.7-1 3.1 0 .1.5.5.7.5l2.6.4 6-.5-.1-1.6-1-2-.8-.5ZM281 32.3l-2 2.3c-.2.2 0 1.5.1 1.6l3.6 3.1c.2.2 1.4 0 1.6-.2.6-.4 1.6-1 1.6-1.6l-.3-2.8c-.8-.6-1.2-1.5-1.7-1.9-1-.5-1.8-.8-3-.5Zm-53.4 180.6c-.3 0-1.5 0-1.6.2-1.1 1.9-2.8 3.5-3.8 5.7-.1.4-.4 1-.2 1.4l.7.6c1.8-.1 3-.9 4-1.6.6-.5 1.5-1 1.9-1.5.5-.8.8-1.5.7-2.3 0-.4-.7-1.6-1-2 0-.1-.5-.5-.7-.5Zm-48.5-85 .2 1.3c-.9.6-1.6 1.1-2.2 2-.3.3 1 .9 1.8 1.1l1.4.2c.5.3 1.8 1.7 2.2 1.6a6 6 0 0 0 2.5-1.2v-1c.2-.8 1.2-1 1.6-1.7-.4-.3-1.5-1.2-2-1.3l-3.3-1.3c-.3-.1-1.7.2-2.2.2ZM76.7 75.6l-3.1 1.8c-.4.2-1.3 1.3-1.3 1.6 0 2 1 2.8 2.3 3.5.1 0 1.3 0 1.6-.2l2-1c.3-.4 1.4-1.6 1.6-2.1.1-.4-.1-1.8-.3-2.2a6 6 0 0 0-1.7-1.5l-1.1.1Zm88 220.5c-2.2-.1-5 .4-7.4.6-.4 0-1 .7-.8 1.1.3.8 1.3 1 2 1 4.6 0 9.2 0 14.2-.5.1-.6-.3-1.2-.8-1.5-.3-.2-1.6-.8-2-.7-2 .4-3.3 0-5.2 0ZM152.8 177l-2.6 1.4-3 .3c-.6 0-1.1 1.1-.8 2 2.8-.7 5-.8 7-.8.9 0 1.4-.7 1.5-.7.5 0 1.8.5 2.2.4l2.8-.2 2.7 1c0-1.2-.8-2-1.3-3-.1-.2-1-1-1.3-1l-7.2.6Zm92 77.4-2.8 2-2.3 2.8 2 3.7c1.4-.5 2.5-1.3 3.7-2 .4-.2 1.5-1.5 1.6-2 .2-.4 0-2-.2-2.4l-1-1.9c-.2-.3-.7-.4-1-.2Zm42.4 36.1a29.6 29.6 0 0 0-6.2 4.3c-.7 1.3-.2 2.5.6 3.1.2.2 1.8 0 2-.2a10 10 0 0 1 4.7-2.9c.6-.1 1.2-.9 1.5-1.6l-.2-1.5-1.3-1.3-1 .1ZM39.7 356.4l.5 6c0 .2.5.7.8.8.7 0 1.2-1.3 2.2-1.3l.3 3.2c0 .5-.7 1.1-1 1-1.1-.2-2.6-.2-4-.2-.4 0-1-.5-1-1-.2-1.9 0-3.6 0-5.5l-.3-4.7c.5 0 1.5-.6 1.8.4 0 .3.7 1 .7 1.3Zm224.7-94c-1.7.9-3.1 1.9-4.1 3.1-.3.4-.4.8-.2 1.2.7 1.4 1.8 2.2 3 3.1l1.1-.1c.5-.2 2-1 2.3-1.4.3-.2 1-1 1.1-1.4l-.1-1.6c-.6-1.3-1.1-2.4-2.1-3l-1 .2ZM159 361.7c0 .2-.5.7-.6.7a13 13 0 0 0-6.2 2.4c-1.3 0-2.5-.2-3.8-.4-1.5.5-3 1-5 1 0-.2-.2-1.2-.1-1.3 1-.9 2.5-1.5 4-2l4-.3c2.2-.4 4-1.2 6.1-1.7.6-.2 1.2 0 1.6.5v1.1Zm58.4-162.3c-.4.2-1.8.7-2 1.1a8 8 0 0 1-3 2.8c-.4.2-.7 1.8-.8 2.2l.1 1c.4.6 1 1.4 1.6 1 2.1-1.1 4.2-2.3 6-3.8l.5-.7-.1-1.2a10 10 0 0 0-1-2c-.3-.2-.8-.7-1.3-.4Zm7-118.2c-.6.8-1.1 1.7-1 3 1 1.7 2.6 3 3.5 4.8.4.7 1.6 1 2.3 1.4h1c.3-.2 1-1 1.1-1.3.2-1 0-2-.4-2.4-2-1.8-3.5-4.2-5.7-5.6l-.9.1ZM61 65c-.1.2 0 1.8.2 2 1.1 1 2.2 1.9 3 3.2l2.9-.9c.8-1 1.5-2.4 1-4.5 0-.3-1-1-1.2-1.2-.5-.2-2-1-2.5-1-1.9 0-2.8 1.1-3.4 2.4Zm207-20.8-2 2.3.1 1.3c.2.4.8 1.6 1.1 1.9l3 2.5s1 0 1.1-.2c1.2-1 1.5-3 1.8-4.6-.6-.3-.2-1-.4-1.3-.2-.4-1.1-1-1.4-1.2-.4-.3-1.6-.7-2-.8l-1.2.1Zm-29.2 202a3 3 0 0 0-.8.1c-1.3 1.2-2.7 2-3.6 3.5-.3.5.6 1 .5 1.8 1 .8 1.5 2.1 2.6 3 1.1-.3 2-1 3-1.6.3-.2 1.4-1.6 1.4-2 0-1.9-.9-3-1.9-3.5l-.4-.7c-.2-.1-.6-.5-.8-.5Zm-139.6-141-2.9 3.2.1 1.2 2.1 3.4c.2.2.9 1 1 .9 1.1-.3 2-1 3-1.5.2-.2.9-1 1-1.4 0-.2 0-1-.2-1.3-.5-.8-1.2-1.9-1.5-3.1 0-.4-1.2-1.3-1.6-1.5h-1ZM69.8 252.3c-.7.8-1.5 1.5-2 2.3-.3.3-.1 2 .1 2.2l4.6 4 1.2-.1c.4-.3 1.4-1.6 1.6-2 .1-.5 0-2-.3-2.2-.5-.7-1-1.6-1.5-2l-2.8-2.3h-1Zm31.1-14.7.1 1.1 2.1 3.5 2.3 1.9 1.2-.1 2.2-2.7c.1-.2-.1-1.3-.2-1.4-1.4-1.7-2.8-3-4.8-4.2-1.3 0-2.3 1-2.9 2Zm-8.4-141-2.6 3c-.1.2.1 1.5.2 1.7.6 1.6 1.7 2.6 2.6 3.7l2.7-.2c.6 0 1.3-1 1.5-1.7.1-.5 0-2-.2-2.5l-1.8-3c-.2-.3-1-1-1.4-1.1h-1Zm177.8 173-2.3 2.7a5 5 0 0 0-2.1 2c.8.3 1.7.6 2.5 1.1 0 1-.6 2-.4 3.2h1l3-1.8 2.3-2.7-.1-1.2-1.1-2a8.2 8.2 0 0 0-1.6-1.3h-1.2ZM245.5 240c-1 1-2 2.2-2.8 3.3-.2.1 0 1 0 1.2l1.2 2c.2.2 1 .9 1.4 1h.8c1.3-1.3 2.8-2.2 4-3.4.6-2.3-.9-4.1-2.4-4.8-.8-.3-1.7.1-2.2.7Zm-167 22.5c-.6.7-1.3 1.3-2.1 1.7l.1 1.9c.2.4.8 1.6 1.1 1.9l2.3 1.9c.3.3 1.6.6 2 .7l1.3-.1c.7-.7 1-1.7 1.3-2.9 0-.3-.7-1.8-1.2-2-1.4-.8-2.6-2-3.7-3.2-.2-.2-1 0-1.2 0ZM68 82.2c-.4.3-1.3 1.7-1.7 2-.8.5-1.8 1-2.4 1.5-.4 1-.9 1.8-.8 2.8.8.7 1.5 1.5 2.3 2 .2.2 1.5 0 1.6-.1 1-1.3 2.4-2.2 3.3-3a3 3 0 0 0 1-2.5c-.1-.4-1-1.6-1.2-2-.1-.1-.7-.7-1-.8l-1.1.1ZM85.9 89c-.7.7-1.5 1.4-2 2.3-.3.2-.1 1.5 0 1.8l1.8 3a5 5 0 0 0 1.4 1.2c.3 0 1.4 0 1.6-.2.4-.3 1.4-1.5 1.7-2 .4-.6.8-1.4.8-2.1 0-.4-.8-1.8-1.1-2l-2.7-2.2c-.2-.2-1.4 0-1.5.2Zm123.7 99.3-4.5 3.4a6 6 0 0 0-2.1 3.8c-.1.7.8.8 1.3 1 .2.2.8.4 1 .3 1.2-.6 2.4-1.1 4-1.5l2.5-3c.2-.3-.1-1.5-.2-1.9l-1-1.9c-.3-.3-.8-.4-1-.2Zm20.3 32.6-4.1 3.5a3 3 0 0 0 1.5 3c.2.2 1.4 0 1.6-.1 2-.8 3.4-2 4.9-3.1.3-.2 1-1.1 1-1.4.2-.4 0-1.8-.1-2.2 0-.1-.5-.7-.8-.8-1.4-.5-3 .4-4 1.1Zm20.4 27.8a7 7 0 0 0-1.6 2l.2 1.7c.5 1 .9 2 2 2.7l5.1-2.6c.3-.1.6-.7.6-.8l-.1-1.8a9 9 0 0 0-1.1-2c-.2-.2-1.2-1.2-1.5-1.1-1.2.5-2.3 1.3-3.6 2ZM91.1 234.3c-1.1 1.6-3 2.8-4.3 4.1-.2.3 0 1.6.2 1.8l2.4 1.9c.4.3 1.6.6 1.8.3.8-1.3 2.4-1.9 3.2-3 .8-1 .6-2.7-.3-3.6l-2-1.6h-1Zm148.3-21.9c0 .8.6 1.7 1.3 1.7 2.6 0 4.6 1 6.8 1.7 3.5 1.1 7 2.5 10 4.2.8.5 1.2 1.4 2 1.8.8.4 1.6.9 2.5.8l-.1-1.4-4-3.5c-2.4-.8-4.6-1.8-6.6-3.2-1 0-2-.4-3.3 0-1.5-.7-3-1.4-4.9-1.5-1.2-.1-2.3-.7-3.7-.6ZM57.5 68c-1.9 1.2-3.4 2.4-4 4.3 0 .4-1.1 1.3-1.3 1.7l.1 1c.5.6 1 1.2 1.7 1.5.3.1 1.5 0 1.6-.2l3-3.2c.2-.3 2-.2 2.5-.2l-.1-2.2c-.4-.8-.8-1.7-1.4-2.1a4 4 0 0 0-1.3-.6c-.2 0-1 .1-.8 0Zm202.2-16.6c-.4 1-.8 1.8-.8 2.7 1.3 1.3 2.1 2.8 3.3 3.8.3.3 1.4.6 1.7.5a8 8 0 0 0 2-1c.2-.3 1-1.1 1-1.4.2-.4.1-2-.1-2.2l-4.4-3.7c-1 .2-2 .8-2.7 1.3ZM53.2 61.5c-.4.2-1.8.7-2 1.1-.7 1.1-1.8 2.2-3 2.8-.4.2-.7 1.8-.8 2.2 0 .2 0 1 .2 1.2.7.5 1.2 1.3 1.7 2 .3 0 1.4.1 1.6 0 .4-.5.4-1.3.8-1.5 1.6-1 2.5-2.3 3.4-3.6l-.3-3.3c0-.2-.5-.6-.6-.7-.3-.2-.6-.3-1-.2Zm40 293c0 1.6-.1 3-.3 4.7l-2 2.3-5 .4c0-1.6.4-3 .4-4.5 0-.6.8-1.2 1.4-1.6.1-.2.9 0 1-.2.6-1 1.7-1.5 2.9-2 .3-.1.7 0 .9.2.1.1.7.5.7.7ZM265 27.6c-.6.5-1.1 1-1.7 1.9l3.4 5.8 2.6 2.2c.3.1 1.4 0 1.6-.2.5-.6.8-1.3.9-2 0-.4 0-1.6-.2-1.8-.2-.4-1.3-1.2-1.6-1.5-.3-.4-1-2-1.4-2.3l-2.7-2.2-1 .1ZM37.6 41.7l-1 .1a27.4 27.4 0 0 1-5 3.8 2 2 0 0 0-.5.7l.1 1c.6 1.3 1.1 2.4 2 3 1.5 0 2.3-.8 3-1.4 1.3-1 2.5-2.1 4-2.9 0-.4 0-1.5-.2-1.7-.5-.7-1.2-1.3-1.6-2-.1-.2-.7-.5-.8-.6Zm220.6 212.8c-1.6.8-2.8 1.9-4 2.8l-.6.7c0 .4 0 1.5.2 1.6 1 .7 1.6 1.8 2.6 2.6.4.4 1.2 0 1.6 0 2-.3 3.2-1.9 4.1-3.6-.4-1-1.2-2.1-1.9-3.3 0-.2-.7-.8-.9-.9l-1 .1ZM228.6 60.3c-.6.5-1.2 1-1.5 1.7-.1.3 0 1.3.1 1.3 2 2.3 3.7 4.4 6.1 6 1.4-.3 2.2-1.5 3-2.7-1-2.5-3-4.1-5-5.6-.3-.2-1-.5-1.3-.5-.5-.2-1-.5-1.4-.2Zm53.1 223.3c-1.4 1.1-2.5 2.3-4 3-.4.2-1.6 1.7-1.5 2 .2 1 .6 1.8 1 2.6.1.1.6.5.8.5l1.8-.1a7 7 0 0 0 1.8-1.1c1.2-1.5 3-2.4 4-4 0-.2 0-.9-.2-1l-1.7-2c-.4-.5-1.5-.3-2 0Zm-5.4-7.4c-1.9 1.7-3.8 3-5 5-.2.2 0 1.2 0 1.4h1.5l3-3.6c.4-.4.8-.5 1.2-.4 0 .2.3 1.2.1 1.3l-2.2 2.8c-.4.5-1.5.8-1.8 1.7 0 .4-.2 1.2.2 1.3 1.5.1 2.5-.6 3-1.3.3-.5 2-1 2.3-1.6.6-.7 1.3-1.5 2.2-2 0-.4.1-2-.1-2.2-.8-.5-1.3-1.4-1.7-1.8-1-.5-1.9-.8-2.7-.6ZM250.9 39.7c-.5.5-1.3 1-1.5 1.7-.1.4 0 2 .2 2.2l3 2.5c.3.4 1 2 1.4 2.3.2.4 1.3 1.4 1.6 1.4 1.3-.2 2.2-1.2 2.8-2.4-.4-1-1.2-2.3-1.9-3.4-1.7-1.3-2.8-3.2-4.5-4.4-.2-.2-1 0-1 0ZM85.3 104c-.9.4-.8 1.6-1.3 2-.3.4-1 .7-1.3.9l-1.6 2 .1 1c.8.6 1.4 1.5 2 2.2.3.5 1.2 1 1.8.6 2-1.3 3.8-2.8 4.5-5a5.3 5.3 0 0 0-2.7-3.9 4 4 0 0 0-1.5.2ZM76 89c-.3 0-1.4.1-1.6.3-.6.5-1.6 1-2 1.5l-3.4 4 .1 1 2.8 2.5c2-1.1 4-2.6 5.3-4.4l.7-1.2-.1-1.2-1-1.9c-.2-.1-.6-.5-.8-.5Zm132.2-9.6a5 5 0 0 0 1 1.8c1.7 1 2.7 3 4.1 4.2.2.2 1.1 0 1.3-.1l2.3-1.5c.1-.1 0-1-.1-1.3-1-1.8-2.2-3.4-3.7-4.7-.4-.3-.5-1-1-1.3-.3-.2-1-.6-1.4-.6-1.6.2-2.5 1.7-2.5 3.5Zm2.1 207.9-4.1 1-6.8.5c-.2 0-.7.8-1 1 .5.2 1.7.8 2.1.7l16-.7c.5 0 1.8.4 2.1.3 1.2-.5 2.6-.6 4-.8l-.2-1.3c-1.9 0-3.7-.2-5.4-.4l-6.7-.3Zm-15-76.5c0 .5 0 2.5.2 2.7a7 7 0 0 1 3 4.2l2.2 2.9 3.2 2.7c.4.4 1 2 1.4 2.3.2.3 1.1 1 1.4 1.1.2.1 1.1 0 1.4-.1 0-.4-.5-.6-.7-1 0-.1.1-1-.1-1.4l-6.6-9c-1.2-1.5-2.4-3.2-4.2-4.1-.4-.3-.8-.4-1.2-.3ZM75.8 247c-1 .5-2 1-2.6 1.8-.1.3.2 1.8.2 2 1.4 2 2.9 3.5 4.9 4.8 1-.4 1.7-1.8 2.5-2.7.2-.2 1.1-.6 1.2-.8 0-.4 0-2-.2-2.2l-2.6-2.3a7 7 0 0 0-2.1-.7l-1.3.1ZM196.4 88.4h-1l-2 2.4c-.1.2.1 1.3.2 1.4 1.6 1.7 2.5 3.9 3.7 5.1.8.8 1.9 1.2 2.4 1 1-.6 2.2-.9 2.7-1.8 0-.2 0-1-.2-1.2a8 8 0 0 0-1-1.9l-4-4.5c-.2-.1-.6-.5-.8-.5Zm23.3 118.8-3.8 4.6c-.3.3 0 1.9.2 2 .8 1.2 1.9 2.2 3.7 1.8l4.1-4.8c.8-1.1.7-2.7-.3-3.6-.3-.2-1.2-1.2-1.5-1.2-.8.2-1.6.8-2.4 1.2Zm17.9 18.4-5.9 4.3-.4.5.1 1.2 1.8 3c.2.4 1 1 1.4 1.2.2 0 1 0 1-.2 1-.9 1.2-2.3 1.7-3.3.2-.3 1.2-.6 1.4-.8a11 11 0 0 0 1.6-2c0-.3 0-1.4-.2-1.6-.6-.7-1.2-1.3-1.6-2.1-.3-.3-.7-.4-1-.2ZM190.4 94.9c-.4-.1-2 0-2.2.2-.6.8-1.5 1.5-2 2.3-.2.2 0 1 .1 1.3 1.1 2 2.3 3.7 4 5 1.1.7 2.7.6 3.6-.4.2-.2 1-1 1-1.4.2-.2 0-1 0-1.2l-1.8-3c-.2-.4-1.6-1.3-2-1.7-.1-.2-.5-1-.7-1ZM63 73.7l.1 1.4-1.1.1c-1.3 1-2.8 1.9-3.3 3.3-1.1.4-1.4 1.5-1 2.9.4 1 .9 2 1.7 2.5.4.2 2 0 2.2-.3 1.2-1.7 3-2.7 4.3-4.1-.1-2-.6-3.4-1-5l-1-1.9-.9 1.1Zm209.6-52.2c-.2-.1-1.4 0-1.5.2L269 24l.9 2.7c1.4 1.2 2.6 2.8 3.7 4.4 0 0 .6.5.7.4.8-.1 1.3.5 1.7.3 1-.4 1.8-.7 2-1.5 0-.5 0-2-.2-2.4-.1-.4-.8-1.7-1.1-2-1.4-.7-2.2-2.1-3.3-3.3-.2-.2-.6-1-.8-1Zm-33.1 48c-.4.3-1.7.9-2 1.2-.8.7-1.3 1.9-1.5 3.1l1.7 3.2 3 2.5c.4.3 1.1-.7 2-.6l2-2.3c.1-.2-.1-1.5-.2-1.8-.2-.4-.8-1.7-1.2-2-1-.7-2-1.5-2.6-2.7-.2-.3-.7-.8-1.2-.5Zm-105.7 98c-.2 0-.8-.2-1-.1-.3 0-1.4.5-1.2.5l-7 .7-.8.8c.4 1 1.6 1.5 2.3 2.1 2.4.2 4.8.5 7.6 0 .5 0 1 1.2 1.6.8l4-2.1c.4-.2 1.2-1.4 1.4-1.7.3-.6-.4-1.2-.9-1-2 .3-4.1 0-6 0ZM45.5 55.7c-1.5 1.4-3.4 2.5-4.8 4.1-.1.2 0 1 .2 1.1 1 .8 1.6 2.1 2.3 3.2H45a5 5 0 0 1 3.3-2.1l2.7-3.2c-.5-1.3-1.3-2.5-1.8-3.4a4.7 4.7 0 0 0-3.7.3Zm207.7 1.6-2.5 2.9.1.8c1.3 2.2 3 3.5 4.9 4.9 1.3-.6 2.6-1.4 3.7-2.1.4-.3.7-1.8.8-2.2v-1.2l-4.6-4c-.6-.4-1.8.2-2.4.9Zm-69.5 44.2a7 7 0 0 0-1.8.1l-2 1.1-1 1.4.1 1.2c1 1.6 1.6 3.7 2.9 5 1 1.1 2.4.3 3.5-.3 1-.5 2.2-1 2.9-2 .2-.2-.1-1.4-.2-1.4-1.2-1.7-2.5-3-3.7-4.5-.1-.2-.5-.6-.7-.6ZM61 279l-1 .1-3.7 4.3c.2 1 .8 1.8 1.3 2.7 1.2 1 2.7 1.8 3.7 3.2.2.2 1.5 0 1.7-.2l2.7-2.3c.2-.2 0-1.6-.2-2l-1.8-3a4.9 4.9 0 0 1-2-2.2c0-.2-.6-.5-.7-.6ZM90.5 113a66 66 0 0 0-3.3 3.9v.9c1.3 1.4 2.4 2.8 3.4 4.2 0 0 1 0 1.1-.2 1.5-1.2 3-2.4 4.7-3.3.1-.1.5-.6.5-.8l-.1-1.3a15 15 0 0 0-4-4.2c-.7-.4-1.7.2-2.3.8Zm121-19.8-2 2.3c-.2.3 0 1.5.2 1.9a7 7 0 0 0 1 1.8c1.5 1.2 2.4 3 4 4l1-.1 3.3-3.8a14 14 0 0 0-5.4-6.3c-.2-.2-1.8 0-2 .2Zm-71.7 60.7c-.4.2-1.5 1-2 1l-7.9.8c-1.1.6-2.3 1.2-3.3 2-.2 0 0 1 0 1.3.1.1.7.6 1 .6l17-1.5c-.7-1.5-1.6-2.7-2.3-3.7-.2-.3-1-.6-1.3-.6l-1.2.1Zm65-54.1c-1.1.5-2.1.9-2.6 1.8-.2.3 0 2 .2 2.1a23 23 0 0 1 4.4 5.6c.2.4 1.5 1.4 2 1.6l1-.1c.3-.3.9-.6.9-1.1-.1-1.9 0-3.7.2-5.3 0-.5-.8-1.8-1.1-2l-3.4-2.8c-.2-.1-1.4.1-1.6.2ZM78.3 96.5a73 73 0 0 0-3.3 3.8c-.2.3 0 1.6.1 2l1 1.8c.4.4 1.7 1.5 2.1 1.6.3.2 1.5 0 1.6 0l2.6-3.1c.4-.5 1.8-.7 1.6-1.5a17 17 0 0 0-1.9-4.7c-.3-.5-1-.6-1.6-.7-.8-.2-1.6.1-2.2.8Zm169-33.6-3.1 1.7c-.3.2-1 1.1-1 1.4-.2.3 0 1.4 0 1.6.8.8 1.7 1.4 2.6 2 .6 1 1.2 2 2.1 2.5.7.4 2 0 2.5-.6.5-.8 1.6-1.2 2-1.5 1.1-1.4 1-3 0-4-1-.8-2.1-1.6-2.8-2.5-.5-.6-1.6-1-2.3-.6Zm-153 180.6c-.4.3-.7 1.8-.8 2.2v1.2l2 1.7c.5.3 1.2.4 1.6.8.2.2.6 1 .8 1.1a4 4 0 0 0 1.7-.1c1.2-.7 2.4-1.1 3-1.7.4-1.1.7-2 .5-3l-2.4-2.1c-.6-1.1-1.1-2.3-2.4-3.2-1.6.8-3 2-4 3ZM191.7 111c-.5-.1-2 0-2.4.2l-3.1 1.7-.8 1v1c1.5 2.2 3.5 3.7 5.4 5.2.3.2 2-.1 2.3-.3 1.2-.5 2.3-1 2.8-2v-1.2l-3.5-5.1-.7-.5ZM224 65.5h-1.2l-3 1.9c-.3.1-1 1-1.2 1.4l.2 1.3c1.9 2.2 3.7 4.3 6 5.9.5.2 1.2-.4 1.6-.8l2.6-3c-.7-2-2.3-3.5-3.6-5l-.6-.6c-.2-.2-.6-1-.8-1.1Zm-22.2 17.3c-.9.6-1.7 2-1.1 3.3 1.2 2.7 3 4.7 5.4 6.3 1.2-.5 2.4-1.2 3.6-1.9l.5-.7-.2-2.9a7 7 0 0 1-2.3-2.5l-3.5-2.8c-.9.2-1.7.7-2.4 1.2Zm17.6 3.6-2.6 3c-.2.2 0 1.3.1 1.4 1.5 1.7 2.5 3.6 3.8 5l.7.7 2.8-.3L227 93c.5-.6-.1-1.8-.8-2.4l-5.2-4.4c-.2-.1-1.5 0-1.6.2ZM63.9 258.7a73.3 73.3 0 0 0-3.3 3.8c-.2.2 0 1 0 1.3.2.4.8 1.7 1.1 2l3.3 2.6c.2.2 1 0 1 0 1.2-1.7 3-2.9 4.4-4.2.2-.4-.1-2-.3-2.2-1.1-1.3-2-2.8-3.3-3.6l-1.2-.6c-.7-.1-1.3.4-1.7.9Zm145.7-120.2c-.8 0-1.3 1.1-1 1.9 2.1 0 4.4-.4 6.3 0l10.2 3 5.5 1c3 .2 5.8.2 8.5.8 0-.5 0-1.4-.2-1.6-.2-.4-.6-1-1-1l-2.8.3c-.3 0-1.2-1-1.5-1-.4-.2-1.5.1-1.7 0a99.7 99.7 0 0 0-17.5-3l-4.8-.4Zm-124 116.1-3.9 4.5c-.5.6.2 1.9.8 2.4l3.5 3c1.5 1.2 3-.2 4.2-1 .4-.2 1.4-1.5 1.6-2a5 5 0 0 0-.1-1.8c-.2-.4-.8-1.6-1.1-1.9l-4-3.3-1 .1Zm111.7-149.4c-.8.4-1.8.7-2 1.2-.5 1-1 1.8-1 2.4a32 32 0 0 0 5.8 7c.2.1 1 0 1.2-.1 1.2-.7 2.4-1.2 3-2 .4-.3.7-1.5.6-1.7L203 109c-1.2-1-2.2-2.4-3.6-3.3-.6-.3-1.5-.8-2.2-.4ZM42.5 278.6c-.8.9-1 2.2-2 3.3l1 3.8 3.3 3 3.4-2.2c.6-1.2 2-1.8 2.8-2.6.1-.2 0-1-.2-1.2-.6-.6-1-1.5-1.6-2l-4-3.4c-1 .2-1.8.8-2.7 1.3Zm-10.6 78c.1 2 0 3.8-.2 5.7 0 1.5 0 3.1-1.2 3.7-1.6.7-2.6 0-4.7.3-.4 0-1.2-1.3-1-1.9l.8-3.7c-.5-1-.9-2.4-.8-4.1 0-.5.8-1 1.4-1.7 1 .2 2.3.5 3.4-.1.4-.3 1.3-.5 1.6.4 0 .2.7 1 .7 1.4Zm123.3-227.3-12.2 1-4 1 .2 1.8c7.2-.5 14.3-.5 21.6-1.3 1.7-.2 3.3-1 5.1-1l3.6.2c.4 0 1.6-.8 2-1l-1-.8-6.3.2-9-.1ZM51.8 287.4a18 18 0 0 1-3.2 3.4c-.6 1.3-.1 2.4.6 3 1 1.1 2.2 1.8 3.3 2.7.4.3 1.5.7 2 .2 1.5-1.3 3.1-2.5 4.5-3.9.2-.2-.1-2-.4-2.3-.4-.6-.9-1.6-1.5-2l-2.8-2.3c-.9.2-1.7.8-2.5 1.2Zm20.9-19.6c-.4.1-1.7.8-2 1.1-.5.9-1.4 1.5-2.1 2.1-.3.3-.6 1.5-.5 1.7l1.8 3.2c.9.5 1.7 1.5 2.2 2.3.3.6 1.3 1 1.9.5 1.8-1.2 3.3-2.7 4.1-4.7.1-.2.3-.8.2-1 0-.4-.8-1.7-1-1.8-1.3-1-2-2.7-3.4-3.5-.2-.2-1 0-1.2 0ZM231.5 75.4c-1.4 1-2.5 2-3.5 3-.5.5-.8 1.7-.5 2 1.1.7 1.7 2 2.2 3 1.2 1.2 2.2 2.2 3.7 2.6.8.3 1.7-.2 2.3-.8 1-1 1.9-2.1 2.8-3.3-.2-1-.8-1.7-1.2-2.5l-4.8-4.1h-1Zm26.3-42-2.2 2.6v1.2l1.2 2c1.6 1.5 3 3.4 4.9 4.6 1.1.8 2.6.7 3.6-.3.2-.2 1-1 1-1.4.2-.4 0-1.9-.1-2.3-.2-.5-.8-1.7-1.2-2-2-1.5-3.4-3.8-5.6-5.2-.5-.3-1.2.3-1.6.8Zm-95.6 82-11.6 2.2c-1.5.4-3 1-4 1.8-.3.1-.6.7-.7.8l.2 1.4 11.3-1 8-2c.6 0 1.7.6 2 .2.7-1 0-2-.7-2.2l-2-.8-2.5-.3ZM110 347.7l.2 1c-.6 4.3-1.6 8.2-2 12.7-1.7 0-3.3-.4-5-.3-.5 0-1.2-.7-1.2-1l.8-5.3c-.4-1.7-.9-3.2-1-5.2 0-.5.6-.8 1-1 0-.2.8-.3.9-.2.6.4 1.2 1.3 1 2-.1 1.7.8 3 1.7 4 0-1.7.3-3 .8-4 .2-.4-.2-1.6 0-1.8.3-.7.8-1.7 1.4-1.6.5 0 1.2.5 1.4.7ZM243.8 46l-2.2 2.6c-.2.3.1 1.6.2 1.7.8 2 2 3.5 3.1 5l2.3 1.9c.1 0 1 0 1.1-.2 1-.5 1.9-1 2.6-1.6.5-1.2.7-2.5 1-3.7 0-.4-1.1-2-1.5-2.3-1.5-1.3-2.6-3-4.3-4-.7-.5-1.7 0-2.3.6Zm-6.6 6.9c-1.6 1.2-3 2.2-4 4 .5 1.5 1.6 2.6 2.6 4 1 1.3 2.2 2.6 3.8 3.6.4.2 1-.7 1.8-.5.5-.8 1.5-1.4 2.2-1.8.3-1 .9-2 .8-3a5 5 0 0 0-1.1-2l-2.7-2.2c-.4-1-1.2-1.7-2.1-2.2h-1.3Zm-204.8 237-1.2.1a12 12 0 0 1-3.8 5c-.6 1.2-1.2 2.4-1.1 3.6 0 .5.8 1.8 1.1 2l2.3 2 1-.2 4.6-4a9 9 0 0 0 1.7-2l-.2-1.4c-1.2-1.7-2.5-3-3.7-4.5l-.7-.6Zm8.7 9.5a7 7 0 0 0-2 .2c-1.7 1.2-3 2.7-4.5 3.7-.4.3-1.7 1.8-1.6 2.1.3 1 .7 2 1.2 2.7 1.6.5 2.7 1.5 3.8 2.6a16 16 0 0 0 7-5.4l-.1-1.2a6 6 0 0 0-1.2-2 5 5 0 0 1-1.9-2.1c0-.2-.6-.5-.7-.6Zm12.3-31.2-1 .1-5.3 6.2.1 1 3.7 3.3c.3 1 1.2 1.6 2.1 2.1h.6c2-1.3 3.5-2.7 4.6-4.5l-.3-3.3a22.8 22.8 0 0 1-3.8-4.4l-.7-.5Zm137 54.9c1 .6 1.6 1.6 2.1 2.9l.8 9c0 .4-.5 1.7-.7 2-.2.6-1 .5-1.5.3-.4 0-1.5-1.3-2-1.5l-2.4-1c-.4-.2-.8-2-.8-2.6l-.3-3.5c.7-1.7 1.3-3.7 1.2-6.2l1.6-.2 2 .8Zm-23.7-136.6c.2 0 .6.4.7.6l.1 2c-.2 0-.7.2-1 0-1.3-.4-2.6-1-4.5-1-6.1 1.2-14 1.7-21 2.7-1.5.6-3.2 1.4-5.3 1.6l-.8-.5c-.3-.7.3-1.6.6-1.7 2.5-.9 5.2-1.9 8-2.1.2 0 .8-.8 1-.9.6-.2 1.4 0 2 0 6-.4 11-1.5 16.8-2l3.4 1.3Zm55.8 137.4.6 7.5c0 .5 0 2.2-.4 2.7-.4.9-1.5 1.3-2.5 1.7a5 5 0 0 1-3.5-2c0-3.7-.7-7-1.4-10.3-.2-.6.8-1.5 1.4-1.6 1.8-.4 3.2-.2 4.7.2.5 0 1 1 1 1.8Zm-81-163.3-7.5.6-7.1 1.3c-1.1.5-2.1 1-2.7 2-.3.6.3 1 .7 1.1l3.7.3 5.6-.5c.4 0 1.6-.7 1.9-.7l8.3.4c.5 0 2-.5 2.5-.8.6-.5 1.2-1 1.5-1.7l-.1-1c-.3-.3-.6-.9-1-.9l-5.7-.1ZM52.8 353.5l.6 6.6 3.3 3c.2.1.1 1.5.1 2a14 14 0 0 0-5.5 2 5.4 5.4 0 0 1-3.1-2c-.5-.7-1-1.5-1.2-2.3.5-1 1.2-1.8 2.2-2.3l-.1-1.7c-.3-.4-2-1.5-2-1.8l.3-4c0-.5.5-1 .8-1 1.4-.1 3.2-.7 3.6-.3.6.4 1 1.5 1 1.8ZM33.4 379c2.8-.4 5.7-1 8.1-1.6 6.5 0 13.3-1.2 18.8-1.3l2.1.3.8.6c-.2 1-1.1 1.6-2.2 1.6-1.3 1.4-3.1.5-4.3-.3-3 0-6.3.5-9.4.7l-3.5-.3a33 33 0 0 1-4.9 1c-1.3.7-2.5 1.5-4 2.2-1.4-.7-4-.5-4.8.2l-10.4 1-.2-3 14-1.1Zm103-75.3c-.3 0-.8.6-.8.8v1.2l.8.5 10.6-.3 13-1.1c4-.2 8-.1 11.6.2.4 0 1-.6 1-1.1l-.2-2.6-9 .2-27 2.2Zm-8.6 61.1-3 .3-4.2 1.6-5-.2c-2.7.6-5.6 1.3-8.6 1.1-5.9 1-12.7 2-18.4 3.4-1.4.4-2.8 1-4.7.6-4.6 1.3-10.4 1.8-14.7 3.5l-.8-.7-.1-1c.5-1 1.5-1.4 2.6-1.9 5.7-.8 12-1.3 17.7-2.5.2 0 1.3-.8 1.7-1l3.1-.8c2.3.1 4.7 0 7.7.2 3.2-1 7.6-1.7 11.9-2.5l3.7-.3c.4 0 1.8.9 2.2.7 1.5-.6 3.3-1.2 4.8-2 1.3.4 2.6.3 4 .3l.1 1.2Zm57.6-23.3c.4.2 1.5 1.4 1.8 1.3l4.1-.3c.7 0 1.8.4 2.3 1l-4.1.4c-2 .6-3.4 2.3-3.5 4.5l4.4-.4 5.7.7c.5 0 2.1-.1 2.6-.3 2-.5 3.6-1.5 5.2-2.4l.2 2.6a5 5 0 0 0-4.6 2.8c.7.5 1.6 1.2 1.5 2.3-2 .3-3.4 0-4.9-.2-1.3.4-2.6 1-4.3 1-.2 0-.9-.6-1-.8.7-.6 1.6-1 2.8-1.1 0-.5 0-1-.5-1.3-.5-.5-1.4-.7-2.3-.9-.4 0-2 0-2.4.2-.3.1-1.2 1.8-1.5 1.7a26 26 0 0 1-6.7-1.3c-.3-.2-.4-.6-.2-1 .4-.6 1.3-1 2-1.3.4-.2 1.8-.2 2.2-.2l-.3-4.3c0-.8-.1-1.7-.8-2.2-.3-.2-2-.5-2.4-.4l-4.2.4-.1-1.1c1.6-.8 2.7-.2 4.1-.7.8-.3 1.6.2 2.5.3.5 0 2 .7 2.4 1Zm-22.7-173.8v.8a140 140 0 0 0 14.3 20.9l2.2 2c.2 1 .6 1.9 1.2 2.5 1.5 1.5 3.3 2.6 4.7 4.4h1.3l-.1-1.5c-.2-.3-1.3-1-1.3-1.3a4.8 4.8 0 0 0-1.9-3.1c-.6-1.1-1.2-2.4-2.3-3.2l-.9-3.3c0-.3-1.4-1-1.6-1.4l-2.1-3.5c-.2-.3-1.1-.8-1.3-1-.3-.5-1-2-1.4-2.4l-1.3-1c-1.4-3.2-4.2-4.7-6.5-6.7-.7-.6-1-1.5-1.8-2-.4-.2-.8-.3-1.2-.2Zm8.3 25.9c.7.4 1.8.7 1.6 1.5-.1.3-.7 1-.8 1-2.7-.3-5.8-.2-8.7 0l-16.3 1.4c-1.7 0-3 .7-4.6.9l-7.1.6c-2.2.3-4.2 1-6.5 1.2-.2 0-.8-.4-.8-.5-.3-.7.2-1.5.7-1.9 1.2-.9 2.9-1.3 4.5-1.6l15.3-2 15.6-1.2c1.4-.1 2.8.4 4.6.2.5-.1 2.1.2 2.5.4Zm37.2 33.5v1c1.2 1.8 2.2 3.9 3 5.8.4.6 1.6 1.3 1.6 1.3l5.6 10.3c1.5 1 2.5 2.4 3.8 4 .2 1 .8 2.1 1.8 2.8a32 32 0 0 0 5 6.8l1.2-.1c0 .5-.1 2.3.2 2.6.7.8 1.8.9 2.8 1.6.3.4 1-.5 1.5-.9 0-.4 0-2-.2-2.5-1-1.8-2.6-3.3-3.8-5-1.6-1.3-2.7-3-4.3-4.5v-.8c-.6-.6-1-1.3-1.8-1.5-.2-.1-1.1 0-1.4.1l-.3-3.2c0-.3-1.4-1.1-1.6-1.4l-4.9-7.5-3.2-3.3-2.8-4.6-1-.8c-.4-.2-.8-.3-1.2-.2ZM286.8 330c.8 2.2 1.4 4.9 1.9 7.5.3 1.9-.3 3-1.2 4l-4.8.5a9.6 9.6 0 0 1-3.5-1.7c-.6-2-1.7-3.8-3.2-4.8-.2 0-.3-1-.2-1.2l1-2.9c0-.2-.2-1-.1-1.2 0-.5.5-1 1-1 1.1-.2 2.3-.5 3.4-1 1.1.4 2.5.7 4 .4.6-.1 1.5.7 1.7 1.4ZM153.3 140.9c-.9.5-1.8 1-2.8 1.3-.5.2-1.4-.2-2 .1-.5.2-.7.9-.5 1.5 5.8-.3 11 .3 16.5.4.3 0 .9.4 1 .8.2.3.1 1.2.2 1.6-1.6-.5-3.6-.7-5.8-.7-.5 0-1.4.4-2.3.5l-4.8.6c-.2 0-1 1-1 1.2-.1.5-.3 1.3.3 1.5.4.2 1.6.8 2.2.8 2.8 0 5.9 0 8 .5 1.6-1 2.6-2.3 3.3-3.6.2-.4 1.7-1 2-1.1.3 0 1.2 0 1.3-.2 1.2-1.7 3-3 4.8-4.3.1-.1 0-1.2-.1-1.5l-8.5-.4-11.8 1Zm93.5 220.4c.4 0 1.6-.7 2-.7l6.2.6c.3 0 1.3-.7 1.7-.7l.9.2c9.4 0 19.9-.8 28.7.2 4 .4 7.7 1.1 12.3.8l4.5.8c.3 0 1 1.4 1.2 1.7l-.6.7-1.7-.6c-.6.7-1.8.6-2.2-.3-1.7-.2-3.2-.6-4.7-.7-2.3-.2-4.2.5-6.2 1-.5 0-1 .2-1.6-.1-.7-.4-.9.8-1.7 1-.7-.8-1.4-1.6-2.4-2.2l-4.3-.8-5.6.5c-1.2-.3-2.4-.7-4.1-.6-.2 0-.8 1-1 1-1-.1-2.3-.3-3.5-.3l-3-1-3.3 1c-1.1.1-2.2-.4-3.3-.5-.3 0-1.1-.3-1.4.3l-3.6-.3-25.8 1c-2.5.4-4.8 1-7.5 1.2-.2 0-.7-.4-.8-.5-.1-.2-.2-1-.1-1.3.4-.7 1.4-1.2 2.3-1.3h10c6 0 11.7.6 18.6-.1Zm-69.5-185.1.2 2.8a7 7 0 0 0 1 2l1.4 1c.2-1 1-1.9 1.7-2.5 3.2-.5 6.2-1.3 9.7-1.5a99 99 0 0 1 13 .3c.2 0 1 .5 1 .9-.6 1.4-.8 3.5-.7 5.5-1.2.2-2.2-.2-3.3-.4l-5.5.5-2.8-.3-2.6.8-3-.3-2.8.8c-.4 0-1-.5-1.2-.9v-1c.2-.5 1.3-1.6 1.5-2a3 3 0 0 0-2.3-.4c-.8.2-2.3.6-2 1.2.8 1.5 2 2.8 2.7 4.4.2.5 1.7 1.7 2.1 1.6l2.8-.8 7.9 1.2a6 6 0 0 0 3.2 1.5l3.1-1.8 1.1-1.3c.5-.3 2-1 2.3-1.4.4-.3 1.3-1.7 1.7-2l6.3-3.8c.5-.3 2-.2 2.4-.2l.1 1.8 1.2-.1c0-.4 0-1.8-.2-2l-3-2.6c-.1-.1-1 .2-1.2.1L209 176c-6.1 0-12-.3-18-.2-1.6 0-3.1.7-4.8 1-.3 0-1.3-1.2-1.6-1.1l-7.3.6Zm-10.1-68.4c-1.4-.4-2.6-.8-4.3-.6-.2 0-.8.8-.8 1v1.2c.2.2 1 .7 1 .9.2.2.2 1.1.2 1.4l-5.3 1 .2 1 9.1-.6c.8 0 1.8.3 2.2.9.2.2.2 1.4.1 1.7-.2.9-.4 1.8-.9 2.4l5.1 2.8c.2 0 1 .7 1.2 1l.1 1c0 .2-.4.8-.6.8-1.4.2-2.5-.6-3.9-.6-.3 0-1.6-1.6-2-1.5-5.8.4-11 1.1-16.3 2-2.9.5-5.6 1.3-8.4 1.9-.7.1-1.2 1-1 1.8 1.4 0 2.7.4 4 .2l9.8-.8 4.3.3 3.2-1 5.6.8 3.8-.3 4.4.8c.4 0 .9-.6 1-1 0-.4-.2-1.4 0-1.6 0-.5.3-1 .8-1.2.4-.1 1.8-.2 2-.1 1.6 1 3.3 1.8 5 2.7l-.1-1.7-1.1-2-1.2-.9c-3.2-.6-6-1.5-9.1-1.8-.5 0-1.1-.5-1.2-.9l-.2-2.7c-1-1-1.8-2.5-3-3.2h-1c-.2 0-.7-.4-.8-.5 0-.5-.4-1.2.1-1.5l1.2-.8-.3-2.8c0-.2-.5-.7-.7-.8-.8 0-1.2 1.5-2.2 1.3Zm67.7 157.4.3 3.1c1.4 1.9 2.9 3.3 4.3 5 .4.4 1.1 1.9 1.4 2.3.2.3 1.2.8 1.4 1.2.9 1.8 2.2 3.5 3.3 4.8.4.4.4 1.3.4 1.3 2.7 3.6 5.5 6.8 8 10.5 1.4.7 2.4 2.2 3.6 3.8a4.5 4.5 0 0 0 2 3l6.1 7.4c.8.5 2 1.4 2.7 2.6.2.6 1.5 1.1 2.3 1.3.3-.5 1.1-1.3 1.2-1.6.1-.4 0-2-.2-2.2a31.4 31.4 0 0 0-3.9-6l-.9-1v-1a8.2 8.2 0 0 1-3.5-2.6c-1.5-2-2.9-4-4.9-5.6l-3.6-5.9c-.3-.4-1-.4-1.4-.8-.3-.3-.8-1.5-1-1.7l-2.8-2.3c-.9-1.8-2.2-3.4-3.4-5l-4-5.7-1.3-1.1c-.8-1.3-1.6-2.6-2.4-3.6-.2-.3-1-.7-1.5-.7-.6 0-1.3.6-2.2.5Zm-104 108c-1 0-2.1-.5-3.3-.5l-2.1 3.9c-2.9.3-5.2 0-7.5-.2-1.3-.2-3-.4-4.7.3-.7-.2-2-.6-3.2-.5-2.7.1-4-.1-6.4.5-.4.1-1.6.7-1.9 1l-3.1 3.6-6.2.5-2.1-.4c-.5 0-1.7.7-2 .8l-9.7 1.4c-1.5 1-3.4 2.3-5.7 2.9l-5.2.5c-4.7.8-9.3 2-13.8 3l-4 .3-3.8 2.1-6 1.2c-1.1.6-2.4.5-3.6.2-.2 0-1.1-.8-1.3-1-.1-.2-.2-1 0-1.2 0-.2.4-.7.5-.7l5.2-.4c4.1-1.1 7.8-3 12-4l5.7-.6c3.6-.6 7.2-1.6 11.1-2.1 2.1-1 4.4-1.8 6.8-2.4l8-1.4c3.6-.2 6.1-.2 10.4-1 1.9-1.3 4-3.4 7.2-4l15.4-1.4 2.6-1.4 8-1.9 4.4.3c0 1.1-.9 1.8-1.7 2.5Zm105-5c1 .1 1.7-.4 2-.3 2.6.3 5.2.4 7-.8.5.4.4 1 .3 1.6 0 .1-.4.7-.6.7l-10.4.1c-4 0-6.9.8-11 1-.4 0-1.7-.4-2.2-.3l-3.6.3c-.3 0-1.6.7-2 .8-.4 0-1.7-.6-2.2-.5l-12.9 1.8-4.3 2.7-6.6.6-2.7.8-8.6.8-2.7.8c-.4.1-1.8-.4-2-.3-3 .5-5.1 1.3-7.9 1.7h-2.2c-2.3 1-5.3 1.4-8.5 1.6l-4 2.1c-.6.5-1.7.8-2.3.7-1.1-.3-2.3-.2-3.6-.2-.6 0-1.2-.9-1.7-1.4l-.1-1c.8-.5 1.5-1.1 2-1.7 1.5-.7 3-1.1 4.9-1l4.2-1.7c7.3-1.1 15-1.3 22-2.8 3.8-.8 8.7-1 12.2-.6l2.9-1.6c5.8-1.5 12.2-2.1 19-2.8l2.8-.9 2.8.4 12.2-1c2.7-.1 5.2.3 7.9.5Zm-101-58.7-4.6.3a9 9 0 0 0-2.5.9c-.4.2-1.2 1.4-1.5 1.6-1.9 1-3.4 2.3-4.8 3.6-.2.2 0 1.1.1 1.3 0 .2.6.6.8.6l5.7-.5 2.8-.9c.3 0 1.7.5 2.1.4.4 0 1.6-.7 2.1-.7 11-1 21.3-1 32.5-2.2.4 0 1.5-1.5 1.7-2 .5-1.2 1-2.5 1-4.3-.1-.2-1-.8-1.1-.8-1.9.6-3.6 0-5.4.8-.4 0-2-.6-2.4-.4l-2.6.8-3.6-.4-20.3 2Zm13.6 19.2c.2 0 .7-.4 1-.4 2.8.6 6.3-.4 8.6-.5 1 0 1.6.7 1.5 1.1-.2 1.5-.2 3.3-.1 5.1 0 .4-1 1.3-1 1.6 0 1.6 0 3.3-.2 4.7 0 .8.8 1.7.6 2.3-.3.8-.2 1.8-.2 2.8l-1.9.1c-.2-1.9-.5-3.9-1-5.8.3-1.8.4-4 0-6.5-.2-.8-.7-1.4-1.2-1.9h-1c-.4.3-.9.8-.8 1l.6 6.9c.7 1.2 1.2 4 .5 5.7-.2.3.7 1.6.7 2l.4 4.8c0 .5-.2 2.2-.4 2.7-.2.7-.9 1.7-1.5 1.7l-7.1.6c-.4 0-1.8-.4-2.2-.7a3.5 3.5 0 0 1-1.3-2.2l-1-11.2-1.3-9c-.8.2-1.5.8-2.4.6l-.6-.6-.2-1.4h-1.2c.2 2 .8 3.4 1 5l1 10.1c0 .7-1 1.3-1.7 1.2l-.8-8.7c-.5-2.9-1.7-5.5-2-8.7.6-.9 1.4-1.6 2.1-2.5 3.7-.1 7.2 0 11-.2l2.1.3Zm1.9-164c-1.5 1.1-3 2.1-3.8 3.5l-5.2 3.6-10.6 9.4c-2 1.9-4.2 3.5-6.3 5.6a4.6 4.6 0 0 0-3.2 2.2 11 11 0 0 0-3.8 4.3c-2.2 1.7-4.4 3-6.3 4.9h-1l-3.6 4.3a3.8 3.8 0 0 0-2.4 2.8c-.7 1.2-2 1.8-3 2.4l-2.9 3.3-3.9 3.4-2.2 2.6c-.2.2-1 .5-1.1.7l-6.6 7.8c-1.2 1-2.5 2-3.8 2.6-2 2.2-3.9 4-6.5 5.6l-4 4.8a6.2 6.2 0 0 1-3 3.5l-4.9 5.9-5 4.2a10 10 0 0 0-2.6 3.3c-.3.4-1.6.8-1.9 1.1l-2.7 3.3-6.2 4.8-3.3 3.8c-1.7 1.4-3.2 3-5.2 4.2-1 1.5-2.7 2.8-4.4 4l-2.2 2.5c-1.2.5-2 1.7-2.4 2.9-1.1 1.4-2.2 3-4.4 3.4l-3.1 3.6-1.2.7-2.2 2.7h1.2c.6 0 2.4-.4 2.7-.8 1.6-3.7 5-6 8.6-8.3 3.8-2.4 6.5-6 10.1-8.6l2.9-2 2.7-3.3 6.7-6c.2-.2 1-.5 1.1-.7l3.3-4 1.2-.6 3.2-4 1.2-.6 3.3-4 2.8-2 2.2-2.6c1.2-.5 2-1.7 2.7-2.6.3-.5 2-1 2.4-1.4l2.1-2.6c.4-.4 2-1 2.3-1.4l3.4-4 3.8-3.3 6-7.1 1.2-.7 5-5.9c.1-.2 1-.5 1-.7l2.3-2.6c.1-.2 1-.5 1.1-.7l3.3-3.9c2.1-1.7 4.2-3.5 6.8-4.8.6-.8 1.3-1.6 2.2-2l5-5.8 4.5-3.5c.4-.3 1.3-1.6 1.6-1.9.4-.3 2-1 2.3-1.4l6.7-6.6c1.4-1 2.9-2 4.7-2.6 2.6-2 4.5-4.7 7.2-6.8l3.2-2.7c.3-.3 1.3-.3 1.4-.5.9-1 2.2-1.6 2.9-2.5.2-.3 0-.9-.3-1-.9-.3-1.6-.8-2.3-1.3-.1-.1-.8 0-.8 0ZM30.8 11c1 2 2.4 3.6 3.6 5.5 2.7 2.5 4.7 5.8 7.4 8.4 1 1 1.8 2.3 2.9 3.4v.7c1.2 1.3 2.1 2.6 3.1 3.9.3.4 1.7 1.2 2 1.7.8 1.9 2 3.6 3.4 5l3.8 3.4 4.3 4.8c1 2 2.6 3.8 4 5.9.1.3 1 .9 1.2 1.1.4.4 1 2 1.5 2.3 1.8 1.6 3.2 3.7 4.7 5.6l1.8 1.6 3.6 5.2c.2.4 1.6 1.2 1.8 1.7 1.7 2.8 4 5 6.1 7.3l2.2 3.4 8.5 9 6.3 9c.1.3 1 .8 1.2 1.1.4.4 1.1 1.9 1.5 2.3l4.6 5c.3.4 1 2 1.4 2.3 1.5 1.2 2.5 3 3.8 4.6 1.2 1.5 2.3 3 3.6 4.4l2 3.5c.3.4 1.8 1.2 2 1.6 2.5 4 5.3 7.8 8.9 10.8l2.7 4.5 3.3.3.3 3.6c2.2 3.3 5 6.2 7.4 9.2.3.4 1 .5 1.3 1 1 1.2 1.6 2.7 2.8 3.7v1c.3.3 1 1 1.4 1.2l1.2-.1c.3-.2 1-1.1 1-1.4.2-.4 0-1.9-.1-2-1.1-1.3-1.9-2.8-3.4-3.3-.7-1.7-1.5-3.3-2.4-4.7-.3-.4-1.7-1.2-2-1.6l-2-3.5-3.3-2.7c-.2-.2-.5-1-.7-1.1l-2.6-2.2c-2-2.7-4-5.5-6.1-8-1.6-2.9-3.6-5.5-5.4-7.6-.4-.4-.4-1.5-.5-1.6a32.9 32.9 0 0 1-7-8.7c-1.7-1.6-3-3.3-4-5-2-2-3.3-4-5-5.9l-4.5-4.5c-2.8-5-6.1-9.3-9.6-13.5l-4.6-5.1c-2-2.6-4.3-5-6.2-8l-2.5-2.1-2.1-2.8-2.6-2.2-2.8-4.6c-.2-.4-1.7-1.2-2-1.8-.7-1.5-1.7-3.2-3.3-3.8a18.1 18.1 0 0 0-5.1-6L60.7 43c-.3-.3-.4-1.2-.3-1.2-1.3-1.6-2.3-3.1-3.8-4-1.6-3.3-4.2-5.6-6.7-7.9l-3.6-4.2a3.8 3.8 0 0 1-2.9-2.3c-1-.9-1.5-2-2-2.8a50.9 50.9 0 0 1-7.6-8.7 5 5 0 0 0-1.5-1.2c-.5-.1-1.7 0-1.5.5Zm162.8 137.2-3-.4c-1.2.5-2.5.7-3.7 1-.7.6-1.7 1.3-1.6 2.5l3.1.3 6-.5.3 3-11.1.3-2.8 1.5c-.3.2-1.5 0-1.7.2-.7.3-1.2 1.1-1 1.8 2.3 0 4.6.3 7 0 3.5-.4 6.7-1.3 10.5-1.5.4.6 1.1 1 1 1.7l-.7.7c-5.5.5-10.7 1.7-16.1 1.9-2.8 0-4.2.4-7.2.8-1 .4-2 .8-2.5 1.7 0 .2 0 .9.2 1 .6.4 1.3.9 2 .8 7.4-.7 14.2-.4 22.2-1.2l3.7.3c.6.5 1.4 1 2.2 1.3l.1 1a4 4 0 0 1-1.1.9h-1.1c-.8-.7-1.8-.9-2.9-1.2l-14.7 1.3c-2.6 0-5.1-.3-7.8 0l-3 .9c0 .3 0 1.1.2 1.4.3.7 1.2 1 1.9 1.1l3 .7c4.3 0 8.5 0 13-.5 4.7.4 9.1 1 13.8 1.1 2 .1 4-.7 6.3-.8.6 0 2.1.8 2.6 1 .4.2 1.3 1.4 1.7 1.4l3.4.3c.4 0 1.3 1 1.6 1 2.6-.2 4.5.7 6.5 1.2 2.3.5 4.7 1.2 7.1 1.6 5.5 2 11.9 3.1 17.9 4.5l14.8 3.4c0-1.4-.8-2.2-1.3-3.1-.1-.2-1-1-1.3-1l-2.8.2c-.3 0-1.3-1.3-1.9-1.5l-8.3-2.7c-.6-.2-2 0-2.5-.2-1.5-.6-3.3-1.1-5.3-1.3-.3 0-1.2-1-1.3-1l-13.3-2.6-3 1c-.3 0-1.3-1-1.6-1.1a24 24 0 0 1-7-1.6c-.3 0-1-1.6-1.2-1.6-2.6.1-4.9-.3-6.8-1-.7-.4-1.4-1.3-1-2.2a3.5 3.5 0 0 1 4-1.8c3.6.8 7 1.7 11.4 1.6-.2-.5-.8-.9-1.3-1.1h-1c-.3 0-1-1-1.4-1-.4-.1-1.5.2-1.8 0-2.6-1.2-6.3-1-9.4-1.7L203 161c-.5-1.3-1-2.5-1-4.2 0-.4-1-1.5-1-2-.1-.2-.2-1-.1-1.1.3-.7 1-1.2 1.3-2-.8-.7-2-1.2-3.3-.9-.3.1-1.7-1.3-2-1.6-.2-.2-.5-1.2-.9-1.3-.8-.4-2 .3-2.5.4Zm7.1 144.7c-2.4.6-5.1.7-6.9 1.3-2.4-.1-5.1.2-6.2.8l-6.8.7c-.4 0-.9.7-1 1.1l.1 1.4 36.7-1.3c1.6.4 3.2.8 5 .8.7 0 1.3 1 1.2 1.7-4.5.3-8.3.1-12.6 0-3.3 0-7.2.7-10.3.1l-3 .9-2.8-.4-16.5 1.5a7 7 0 0 1-1.4 2.2c-.2 2.1-.8 3.8-1.9 5.2-.2.3-.4 1.2-.2 2.2l5.7-.8c0-.3-.3-1.2-.2-1.4.5-.5 1.3-1 2-1.2.5 0 1.8.5 2.2.5.4 0 1.7-.9 2.1-.8 1.8.5 4 .8 6.3.6.1.5 0 .9-.2 1.3l-1 1.1c1.3.3 3 .4 4.3.4l6-.5 36.4.5c.5 0 1.3-1 1-1.6-.8-1.9-2-3.4-3.1-4.9l-2.6-2.2c-2.3-2.6-4.1-5.7-6.2-8.5-.3-.4-1.6-1.6-2-1.6l-20 1.1-4-.2Zm-63.5-106.4-2.8 3.2c-.3.4-1.8 1.1-2.2 1.5l-5 4.6-4 3.4c-.2.3-.8.7-.5 1.2.2.4.8 1.7 1.1 2 .3.4 1.7 1.6 2 1.6 2-.2 3.7-.7 5.6-1 9.8-1 19.5-1.3 29.1-1.8.7 0 1.6.2 2.1.9a3.4 3.4 0 0 1-4 1.2c-5.1.2-11 .4-16.1 1.4-.3.1-.9-.2-1-.2-.4 0-1.6.8-1.8.7-2.2-1-5 .1-6.8 1.3-.8.5-1 1.4-1 2.2 0 .3.8 1.6 1 2 .3.2 1.2 1 1.4 1 3.3-.1 5.4-.7 7.4-1.2 6.1.8 12.3.3 18-1 7.9-1 16.4-1.5 23.8-3.1.3-.1.7-.6.5-1-.5-.8-.7-2-1.4-2.2-1.3-.6-2.8-1-4-1.2l-9 .7c-1.2-.5-2.5 0-3.4.4l-.8-.6c-.4-.6.2-1.5 1-1.6l9.7-.5 2.6-.3c0-.5 0-2.3-.2-2.6l-4-4.1-.1-1.6-1.6-1.4c-.4-.5-1-2-1.4-2.3l-2.6-2.2c-1-1.3-2-2.5-2.9-4-.2-.5-.8-.6-1.4-.5l-2.7.9-3.5-.3c-5.1.1-9.2 1.2-13.8 1.7-.5.1-1.9-1-2.4-.8-2 .7-3.2 2.5-4.9 3.6ZM13.1 286.8c2.3-.3 3.7-2.1 4.3-4l3-3.6c1.3-.5 2-1.7 2.7-2.6.3-.4 1.6-1 2-1.1h1c3.1-2.9 6.4-5.4 9-8.5.3-.3 1.9-1 2.2-1.3l9-8.6c.1-.2 1-.5 1.1-.7l3.2-3.8c2-1.2 3.5-2.7 5.1-4.2l7.7-9 1.1-.7 2.2-2.6 1.2-.8 4.9-5.8a7.6 7.6 0 0 0 3.1-3.5l3-1.9 5-4.6 4-4.6c0-.2.9-.5 1-.7l4.7-5.5h1.1l2.6-3 3.3-2.7 2.3-2.6 3.3-2.7c.4-.3 1.3-1.7 1.7-2l6.8-4.8 3.5-4.2h.9c1.5-1.3 3-2.3 4-4l-.3-2.4c-.4 0-.9.1-1.2.4l-1 1.3-2 1c-.2.1-1 .3-1.2.1-1.3-1.3-2.6-2.7-2.7-5.3 0-.5 1.5-1.8 1.5-2 .4-3.6 1.2-6.5 2-9.6l3-7.5.2-1.2c1.5-2.2 2.7-4.2 4-6.4.4-1 1-2 1-2.4-.6-1.7-.5-3.3-.7-4.7l.7-2 2.5-3c-.2-1-.8-1.8-1.2-2.5a22.3 22.3 0 0 1-4-5.1 5.8 5.8 0 0 0-1.6-1.4c-.2 0-1.1 0-1.2.2-.8 1.3-2.1 2.2-3.4 3.2l-4.5 2.8a88 88 0 0 1-5.5 4.7c-.3.2-1.2.4-1 .3-2.5 1.7-4.3 3.3-6.6 4.6l-2.5 1.1c-.7.3-2-.4-2.3-1-.7-1-.2-2 .4-2.4l4-2.5c.2-.1.5-.6.6-.8 0-.1 0-.8-.2-1-.2-.3-.5-.8-1-.9-.3 0-1.3.2-1.6.1-.4-.2-1-.4-1-.8-.2-.4-.2-1.6-.2-2h-1.2c-1.7 1.3-3 2.6-4.1 3.6-.5.4-1.2.5-1.3.5-.8-.2-1.7-.2-2.2-.8-.2-.2-.3-1.4 0-1.6.9-1 1.8-2.3 2.4-3.5.3-.5 1.6-.9 1.9-1.2.2-.2 1-1 1-1.4v-1c-.5-.5-1-1.1-1.7-1.4-.2-.1-1 0-1 .1a7.2 7.2 0 0 1-5.6 3c-.4 0-1.5-.8-1.4-1.4 0-.6.4-2.1 1-2.5 1-1 2.5-2 3.4-3.7-.2-.8-.7-1.6-1.2-2.3a5.4 5.4 0 0 0-3.1-2c-1.5.7-3 1.8-4.4 2.6-.3.2-1.1.1-1.3 0-.4-.1-1-.4-1.1-.8 0-.2-.2-.8-.1-1 .2-.5 1.2-1.8 1.7-2 1-.7 2.1-1.2 2.8-2.1.2-.4 0-2-.2-2.3a8.5 8.5 0 0 0-2-1.7c-.2-.1-1 0-.8 0a13 13 0 0 0-4 3.7c-.1.2-1 .1-1.2 0-.9-.2-2-.3-2.5-.8v-1.2c.6-1.1 1.8-2 3.2-2.1.7-.9 1.5-1.6 2-2.4.2-.2 0-1.4 0-1.5-1.2-1.3-2-2.7-3.4-3.5-.7-.4-1.7.2-2.3.7-.4.3-1.1 1.5-1.5 1.6-.4.2-1.8.3-2.2.2l-.7-.5c-.1-.2-.3-1.2 0-1.3 1.2-1 2.6-2.1 3.5-3.8a8 8 0 0 0-2.2-3.4l-.6-.6a17.3 17.3 0 0 0-4.2 4l-2.8.2c-.4 0-1-.5-1.2-.9 0-.3-.2-1.4 0-1.6l4.3-5.3c.2-.3-.2-1.8-.2-2.3l-2-1.1h-.9c-1.3 1-2.6 1.9-3.3 3-.2.2-1.4.2-1.6.1-.5-.1-1-.4-1.2-.8-.1-.4-.4-2-.2-2.3l3.4-3.4c.1-.1-.1-1.5-.2-1.7-.3-.8-.5-1.6-1.2-2h-1.2L51.3 85l-1 1.3-2 1c-.4.2-1.7.2-2.2.2 0-.4-.3-1.7-.1-2 1.4-1.7 2.5-3.6 4.2-5 .5-.4.8-1.4.5-2-.2-.4-.6-.8-1-1-.3 0-1.4 0-1.5.2-1.4 1.7-3.2 3-5.1 4-.3.2-1.6.3-1.8.1-.6-.4-1-1.1-1.2-2-.2-.7.4-1.4 1-1.8l4-2.5c.8-.4 1-1.4 1-2.2 0-.3-.8-1.6-1.1-2-.5-.4-1.1-1.2-1.7-1.1a7 7 0 0 0-2.2 1.2l-2.5 2.9c-.1.1-.9.2-1 0-.5-.1-2-1.2-2-1.6 0-1.1.5-2 1.2-2.8.4-.3 1.9-1 2.3-1.4.2-.2 1-1 1-1.4.2-.3 0-1.4-.1-1.7-.3-.7-.5-1.6-1.2-2-.2-.1-1.4 0-1.6.2l-3.6 4.2c-1 1-2.6 1-3.6 0-.2 0-.2-1.2-.1-1.6.2-.8.3-1.8.8-2.3L32 63l3.3-4c-.2-1-.7-1.8-1.3-2.5 0-.1-1.4 0-1.5.2-1 1.3-2.5 2.1-3.8 3.3-.1.1-1.6.2-2 0-.4 0-1-.3-1-.8-.2-.4-.2-1.7-.3-2.2 1.6-.9 2.8-2.1 4.2-3.2.4-.3.8-1.1.5-1.8-.3-.6-.7-1.4-1.5-1.7l-1 .1-2.5 3c-1 .9-2.5 1-3.5.2-.3-.2-.9-.5-.8-1 .2-1.2.7-2.2 1.6-2.6l2.2-2.7c.2-.2 0-1.4-.2-1.6-.4-.6-1-1.2-1.6-1.5l-1.3.1-1.9 1c-.2.3-.8 1.2-1.1 1.4L15.9 48c-.8.2-1.9.3-2.5-.5-.5-.7-.4-1.7-.3-2.6 0-.4.3-1 .6-1 2-.6 3.4-1.7 5-2.7 0 0 .5-.5.5-.7 0-.3 0-1.3-.2-1.5-.4-.6-1-1.5-1.6-1.4-1.9.1-3 1.5-3.3 3.1a15 15 0 0 1-3.4 4.6c-1 0-2-.4-2.5-1-.6-.5-1.2-1.6-1-2l2.3-2.7a3.9 3.9 0 0 0 2.4-3 5 5 0 0 0 1.6-2.6c0-.9-.7-1.7-1.5-2.1h-1.2A8 8 0 0 0 9 33l-2.7 3.3C5 37 3.9 37.8 2.5 38c-.8.1-2.2-.3-2.3-.8L0 34.5l2.8-3.4c5-3.6 11.1-6.4 16-10.6.7-1 2.2-2 3.7-2.4.4-.1 1.2-.6 1.3-.8l2.8-3.3c.1-.2 0-1.4-.2-1.7-.1-.3-1.2-1-1.3-1.2-.2-.4-.3-2-.1-2.1.9-1 1-2.5 2-3.4 1.2-.6 2-1.5 2.6-2.4l2.8-.2 3.7 3c.2.2 0 1.1.1 1.3l3.9 6.5c.6.8 1.7 1 1.9 1.2 2.4 2.2 3.9 4.5 5.5 6.8 1 .6 2.2 1.5 2.8 2.8.3.5 1.2.4 1.6.9L68.2 45l4.5 5c2.5 3.2 5.2 6.3 8 9.1 1 1.2 2 2.4 2.8 3.9 2 1.5 3.2 3.6 5.3 5 .7 1.5 1.8 2.7 2.6 3.7.3.4.4 1.3.4 1.3 3.6 4.5 7 9 10.7 13 1.2 1.3 2.2 3 3.8 4 1.2 2.3 2.8 4.1 4.4 6.5l2.3 2c1.4 2.1 2.8 4.1 4.8 5.6.3.3 1 1.8 1.4 2.3l1.2 1c1.6 2.8 3.7 5 4.8 8 2.4 2 4.5 4.2 5.7 7.1.8 1.8 1.9 3.3 2.8 5 1.3.7 2.3 2.3 3.5 3.7 0-3 .7-4.9 1.7-6.6.6-1 1-2 1.4-3 1.7-2 2.8-4.1 3.7-6.5l9.6-11.4c.3-.4 1-.5 1.4-1l.5-1.3c.3-.4 1.3-1.8 1.7-1.9a9 9 0 0 1 3.6.1c.5.2 1.5-.6 2-.3l2.6 1.6 5 2c.1 0 .6.4.6.6l.1 1.5c.5-.2 1-.8 1.1-1.2.2-.3 0-1.5-.1-1.8l-1.8-3c0-.3-.2-1 0-1.3a5 5 0 0 1 1.1-1.3c.2 0 1-.2 1 0 1 .7 1.8 1.8 2 3.6 0 .3 1 1 1.2 1.2l1.1-.1c.7-.9 1.9-1.2 2.5-2.1-.5-1.8-1.7-3-2.3-3.7-.7-1.8 0-3 1-3.3.2-.1 1.1-.3 1.2-.2l2.6 3c1.1-.3 2-1.1 3-1.7.3-.2 1.6-1.7 1.5-2l-1.7-3.7c-.5-1.2.2-2.4 1-3 .1-.1.8-.2 1 0 1.4.9 2.2 2.5 3.8 3.6a8.7 8.7 0 0 0 3-3.8c-.4-1.3-.8-2.6-.8-4.3 0-.2.8-1.2 1-1.4h1.2c1 .7 2 1.4 2.5 2.5.3 0 1.4 0 1.6-.2.8-.6 1.2-1.7 1.4-3-1-1.1-.4-3 .8-3.9l3.4.8c.7.2 1.7-.6 2.4-1.2-.3-1.4-.7-2.7-.7-4.4 0-.3.4-.8.8-1 .2-.1.9-.2 1-.1.4.1 1.4 1.1 1.8 1.2.4.1 1.3.3 1.4-.2v-1.3c-.2-.4-1-1.5-1.1-2-.1-.1-.2-.9 0-1 .1-.5.3-1 .8-1.2.2-.1 1.4-.3 1.6-.1l2.8 2.1h1c1.1-.6 2.1-1 2.6-1.8 0-2-.4-3.3-.9-4.6-.2-.4.7-1.4 1.3-1.7.3-.2 1.4-.3 1.7-.2.5.2 1.8 1.6 2.2 1.6.9-.2 1.7-.7 2.5-1.1l.5-.7a5 5 0 0 0-.2-1.9c-.4-.7-1-1.5-1.2-2.4 0-.3 1-1.2 1.3-1.3.3-.2 1.4-.3 1.6-.2l2.4 2c.1 0 1 0 1.1-.2.6-1 1.6-1.7 2.2-2 1.2-1.3.6-2.4.3-3.5 0-.3-1-1-1.2-1.3-.2-.4-.3-1.8-.2-2.2 0-.2.4-.7.5-.7 1.8-.4 3.1.4 3.5 1.6.2.7 1.2 1.4 1.7 1.3.6-.2 1.9-1 2.2-1.2.3-.2 1.1-1.1 1-1.4l-.1-2.8c0-.3-1.2-1-1.4-1.3v-1.5c.1-.5.4-1 .8-1.2.3 0 1.4-.2 1.6 0L245 39c.9-.2 1.6-.8 2.4-1.2.2 0 .8-.7.8-1 .1-.1 0-1-.1-1.1-.6-1-1.2-2-1.7-3.4-.3-.6.7-1.5 1.4-2h1c1.1.6 1.8 1.8 2.7 2.8l2.9-1 2-2.3-.1-1-2.7-3.1c-.1-.1-.2-1.3-.1-1.5 0-.2.9-.7 1-.7 1-.4 1.9-.2 2.5.3l2.7 2.2c1.1-.2 2-1 2.5-1.9 0-1.4-.6-2.6-1-3.7-.4-.5 0-1.6.6-2.2h1c.4.1 1.4 1 1.7 1.3l2 .7 1.3-.1a3 3 0 0 0 1.1-2.4c-.6-1-1.3-2-1.8-3.1-.1-.3-.2-1.5 0-1.8.2-.7.7-1.4 1.3-1.8l1-.1c.6-.6 1.3-1.3 2-1.6 1.2-.5 2.4-1.1 3.8-1.3.8.8 2 1.6 3.6 1.2l2-3.1c.2-.4 1.6-1 2-1.1l2.9-.3c.5 0 1.3.7 1.2 1.4-.2.9-.6 1.8-.4 2.4.6 1.6 1.6 2.5 2.4 3.8l3.9 3.3c.8 1.4 2 2.4 3.8 3 1.8 2 3.7 4.2 6 5.8.2 0 1 0 1.2-.2 1.1-1.8 3-3.5 5.8-3.8 1.2.4 2.4.2 3.5.1.8 0 1.7.2 2.2.8l.1 1.2-.7 2-2.1 2.5c-.7 1.7-1.8 2.8-2.9 4l-1.4.1c-.2-.7.3-1.3.4-2l-.2-2.5a17.7 17.7 0 0 0-6.2 5.3c-.3.4-1 .6-1.3 1-1.7 3.1-3.8 5.8-7 7.7l-2.7 3.1-3.4 2.8-3.3 3.8c-1.5.8-2 2.4-3.3 3.3a9 9 0 0 0-3.7 4.5c-.2.5-2 1.1-2.4 1.5l-1.1 1.2c-2.9 1.7-5 4-7.4 6-.6.7-1.4 1-2.4 1.2-.3 0-1 1.2-1.3 1.4h-1l-3.7 4.3-4.6 2.8-2 2.3c-1.3.3-2.4.8-3 1.8l-1.2.7-2.5 3c-.3.3-.2 1-.7 1.4l-3.4 2.8-2.2 2.5-3.3 2.8c-.4.3-1.3 1.6-1.7 2l-2.3 1.3-1 1.3c-.5.3-2 1-2.4 1.4l-3.2 4-1.2.6-2.2 2.7c-.5.5-1.4 1.4-2 1.5a5 5 0 0 0-3.5 2.5l-1.3.7-3.8 4.5-5.7 4.7-13.4 11.5c-1.9 1.3-3.7 2.4-5 4-.2.2 0 1 0 1-.2.5-.5 1.2-.9 1.2l-3.4.3-2 2.3-3.4 2.1-5 4.6-3.5 2.2c-1.7 2-4 3.6-5.4 5.8l-3.1 1.8-1.2.1c-1.3 1-2 2.6-2.1 4.1 0 .7-.7 1.8-.8 2.2l.6.6 1.5-2.6c.2-.3 1.3-.8 1.5-.7 1 .3 2 .4 3.1.3 3-1.6 5.4-3.6 7.7-5.7 1-.8 2-1.6 3.6-1.9l3.1-3.5c3-2.8 6.4-5.3 9.6-8.1.4-.4 1.9-1 2.2-1.4l2-2.3 1-.1c1.3-1.9 3.5-3.1 4.9-4.9l5.6-4.2c.3-.2.8-1 1-1.2 3.2-2 5.7-4.2 8-6.8.1-.1 1-.5 1-.7l2.3-2.5 2.8-2.1c.9-.8 1.6-1.9 2-2.7.5-.8 1.6-.6 1.8-.9a62 62 0 0 1 5.8-5c2-1.5 4-2.8 5.6-4.8l2.9-1.8c.5-1 1.5-1.7 2.6-2.2l5.1-6c1.2-.5 2.3-1.4 2.6-2.4 4.7-3.2 8.4-6.8 11.9-10.9.1-.1 1-.4 1-.6l3.4-4c1-.6 2.1-1.4 3.5-1.7 2.8-2.4 5-5.2 7.8-7.6l2.7-2.1 2.3-2.5 3.8-3.5c1.2-1.1 2-2.5 3.4-3.5.2-.2 1.1-.5 1.3-.8l4.8-5.6c3-1.6 5.1-4 7.2-6.5l4.7-4.3c.3-.2.5-1.2.7-1.3.3-.2 1.6-.2 2-.2 0 .4 0 .9-.2 1.2-.3.4-1.3 1.4-1.3 1.8-.1 1.5-.8 2.7-1.3 3.9l-4.7 5.6a3.8 3.8 0 0 0-2.3 2.7c0 .5-1.4 1.5-1.4 1.9.2 2.5-1.7 3.7-3.2 5l-3.4 2c-3.3 3-6.3 6.2-9.5 9.3-2.9 1.7-5 3.9-7.4 6l-6.6 5.5-4.7 5.5h-1c-1 1.2-2.5 1.9-3.4 3.2-3 1.6-5.4 3.8-6.9 6.8-.2.5-1 .6-1.3 1l-2.8 3.2-3 2.4a5.4 5.4 0 0 1-2.4 3.2c-.4.3-.6 1-1 1.2-.9.2-1.5.7-2.6.7-.7 1.1-1.8 2-3 2.3L225 115l-4.4 5.2-6.2 4.8c-.8 1.2-2.2 2-3 2.8-.5.6.3 1.3.8 1.3l3-.3c0-.4-.2-1.7 0-2 .2-.6.8-1.7 1.3-1.7l3.6-.3c.7-1 1.1-2.4 2.4-3.3 2.5.4 4.3 2.2 6 3.8.2.2.5 1 .7 1.1l3.3 2.7.7 1.2 3.9 3.3c.2.1.5 1 .7 1.1l3.2 2.7.7 1.2 2.7 2.2a7 7 0 0 0 2.3 2.5c.2.2 0 1.5.1 1.5 1.5 1.4 2.6 3.3 4.3 4.5l1.7 3 .3 2.8a19 19 0 0 0 6 8.7c1.1 3.4 3.3 6 4.9 9 .4.8.9 1.5 1 2.5 1.5 1.3 2.3 3.2 3.2 5l4.6 7.6c.1 1.2-.4 2-.8 3-.6.6-1.5 1-2.4 1.4-1.2-.2-2.4-.6-3.7-.3l.4 5-.7 5.7.4 5.1-.1 5.7c0 .6.9 1.9.8 2.3-.2.8-.5 1.8-.3 3l1 4.8c.2 5.3.2 10.7.8 16.4 0 .5-.2 2.2-.4 2.7-.2.4-1.5 1.7-1.5 2-.2 2.7-1.7 4.7-3 6.5l-.6 1.1v1.2l1.1 2c.2.2 1.1 1 1.4 1a4 4 0 0 0 1.8-.2 24 24 0 0 1 2.8-1.2c.6-.3 1.6 0 2.2.6v1c-.4.7-.8 1.4-1.4 1.8h-1l-.6 1.3.1 1.1c.7 1.2 1.2 2.3 2 3 .3.1 1.6 0 1.7-.2 1-1 2.2-2 4-2.2.2 0 .7.5.8.6.3.8 0 1.7-.4 2.4l-2.4 3c-.2.2.1 1.3 0 1.2 1 1.9 3.6 3 5 1.3.6-.6 1.3-1.3 2.2-1.4.3 0 1.2.5 1.4.6 0 .2.2 1 0 1l-2.7 3.6c.3 1 .9 2 1.2 2.3 1.4 1.2 3 1 3.9 0l.9-1h2c0 .2.2 1.2.1 1.3l-2.7 3.5c.3 1.2.9 2.3 1.8 3l.8 1.2c.2 0 1.4 0 1.5-.2.7-1 1.8-1.5 3-2l1.5-.2.3 3.4c-.8 1-2.3 1.5-3.4 2.4-.5.4-1 1-.7 1.8.3.8 1.2 2 1.7 1.8 2.5-1.1 5.2-2.3 7.4-3.8.4-.3 1.6-.2 2 0 .4 0 .9.3 1 .7.2.2.2.9.2 1a9 9 0 0 1-1.6 2c-2 1.2-3.7 2.6-6 3.4a29 29 0 0 1-7 4.3l-3.6 2.8c-.2.2 0 1.5.1 1.6 2.1 1.2 3.7 2.9 5.5 4.4.1.1.5.9.7 1l6.1 5.3 1.3.4 2.6 2.2 5.3 3.4c.7.4 1 1.4 1 1.8 0 1.7-.9 2.9-2.2 3.2-.2 0-1 .2-1.2.1-.3-.1-1.1-1-1.5-1h-.9c-.5.4-1.1 1-1 1.6 1 3.2 1.8 6.4 2.7 9.7l2.3 5.9.4 3.7a55 55 0 0 0 2.7 8 6.8 6.8 0 0 0 2.5 2.6c.9-.5 2.7-.6 4.3-.6.3 0 1 .4 1 .8l1.2 6.3-.6.8a3 3 0 0 1-1.2 0c-.3 0-1.2-.9-1.2-1.1 0-1.4-.7-2.4-1.4-3.1l-1 .1c-.3.3-1 .7-.9 1.1l.6 3c0 .3-.6 1-.8 1-.2.2-1 .3-1.2.2-.2 0-.6-.5-.7-.7a13 13 0 0 0-2.6-5.8 15 15 0 0 0-2.3-4.3c-1 .6-3 .8-4.3.4l-.1-1.1 3.6-.3c-.3-2-2-2.8-4-3l-1.7-.1-.2-1.8 3.6-.3c0-.6 0-2.2-.2-2.7-1-2.4-1.5-5.3-2-7.4 0-3-.3-6-1.2-8-.1-.3-1.4-1-1.6-1.6-.3-.6 1-1.2.8-1.8-.8-2.3-3-3.4-5.7-3-4.8-1.3-10-2-15-3-.3 0-1 0-1.1.2-.4.2-1.3 1.7-1.6 1.6l-4.7-.3c-.6 0-1 2-1.5 2.2-1.6.4-3.3 1-5 1.2-.4.1-1 .6-1 1s.2 1.4.1 1.7l-.5.7c-.6.3-1.2-.2-1.3-.7l-.3-3.3c0-.3 1-1.2 1.1-1.5a5 5 0 0 1 1.2-3.5c.4-.4-.8-1.1-1.5-1.5l-1.5.2-1.5-1.1c-.5-.1-2.2.4-2.8.1a7.6 7.6 0 0 0-5.9.1c.4.6 1.3 1.5 1.8 1.4 1.8-.3 3.3.2 4.7.5.4 0 .9.4 1 .8.1.2.2 1 .1 1.2-.5 1.5-1.2 3-1.4 4.8 0 .2-.8 1.1-1 1.3-.7.5-1.2-.4-1.5-.8-.5-.7-1.5-1.4-1.4-2.1 0-.9.7-2.3 0-2.6-1.1-.5-2.6-1-3.7-2l-2.6.8c-.3.1-1.1-.5-1.1-1l-.3-3c-.6-.2-1.2.2-1.4.7-.4.7-1 1.6-.8 2.3l.9 3c2.1.2 4 .8 6.3.7l.7.5c.1.3.1 1-.4 1-1.3-.2-3-.2-4.8.2-.3 0-.8.5-.9 1l.1 1c.5.5 1 1.3 1.7 1.4 2.4.2 4.7.7 7 1.3 2.3-.4 4.3-.2 6.2.1.6.1 1.2.9 1.1 1.7-3.5-.2-6.9-.7-10.8-.4-.6 0-2.1.7-2.5.9-.4.3-.8.6-1 1-.1.8-.4 1.7-.3 2.2.5 1.8 1 3.4 1.8 4.5.4-.4 1.4-.6 1.8-.2.2.2.2 1 0 1.3 0 .1-.4.6-.6.6l-1.4.2c.4 2.7 1.1 5.5 1.9 7.8.7.9 1.7 1.4 2.5 1.9.4.2.8 1.2.8 1.5.1.3 0 1.4.3 1.8.3.5 1 .8 1.3 1.6-1 .9-2.5 1.5-3.3 2.6h-1L246 356l-6.3.5c-.5 0-1-.6-1-1 .1-.7.8-1.3 1.6-1 .4 0 2 .3 2.2.2 1-.6 2.1-.3 3.3-.5-3.2-12.8-5.5-26.8-8.4-39.9-.1-.4-.6-1-1-.9l-6.2.5-4.3-.8-10.2.3c-.5 0-2-.6-2.2-.4-1.2.8-3.3.8-5 .8-2.1-.1-4.3 0-6-.2-.6 0-1.2.4-1.8.4-2.7-.1-5.3-.5-8-.4-.8 0-1 1.2-1.4 2l-4.3-.4c-2 .5-4 1-6.2 1.1-.3 0-.7-.3-1-.1a2 2 0 0 0-.6.7c0 .2 0 .8.2 1 .1.3.6.5.6 1h-1.4c-1-.2-1-1.7-1.6-1.7-1.6-.2-2.7.5-3 1.4a9.5 9.5 0 0 0-.2 5c.5.1.9-.3 1-.7.3-.5.6-1 1-1.3.4-.2 2-.2 2.6-.2 0 .3.2 1.2.1 1.4l-2 2.3c-.6.6-1.3-.4-2-.1-.2 0-.5.6-.5.8.1 5.9.2 11.9 1 18.2l-1.7 6.8v2.5c-.2.5-.5 1-.9 1.2a2 2 0 0 1-1 0c-.4-.2-1.1-.5-1-1 .2-3.3.8-6.5.8-10 0-6.5-.5-13-.4-19.2l.4-2.9c-.5-1-.7-2.3-1-3.5l-4 .3c-.8-.2-1.6-.7-2.6-.5l-16.3 1.8-.7-.2c-.4 0-1.6.8-2.3.9l-12.7 1c-4 .5-7.6 1.4-11 2.2-.7.2-1.6 1-1.5 1.7l.6 7.4 1 4c-.4 5-1.1 9.4-1.9 14l-1 2.8c-.3 2.6-.5 5.1-1.3 7l-.8 1c-1.2.7-2.1-.3-2.3-1.8 1.3-5 2.2-11.1 3.2-17.1l.4-6-.3-3.9c0-1.6.1-3.3.6-4.5-.7-1-1.2-2-1.6-2.4-.8-.9-1.8-1-2.6-.7-.2-.1-.8-.5-.8-.7l.2-5.4c.1-1.4 1.3-2.3 2.2-3 1.4-1.1 3.2-1.8 4.4-3.2h.9c1-1.5 2.7-2.3 3.7-3.7l3.4-2.1 5.6-5.3 3.3-4c.3-.3 1.2-.4 1.4-.9.2-1.2 1-2.2 1.9-2.9l4.6-2.8 3.5-4.2c.2-.2 1 0 1-.1l3.8-3.7v-1l-2.8-1.2c-1.8.6-4.6.9-7.2 1-1.8 0-3.4-.4-5-.4-1 0-2 .4-2.8.3-.4 0-.9-.3-1-.7-.2-.3-.1-1.4-.3-1.6-.2-.4-.5-1-1-1-1 0-2-.3-2.7-.8l-.7-8.1-.8-2.7.4-2.9-.9-9.6c-.3-2.5-1-4.8-1.2-7.5l3.7-3.7c2.4-.3 4.8-.8 7-1 2.5-.3 5 0 7.2.3 13.2-1 27-3.7 41-4.7l.2 3c-4.3.4-9.4.7-13.1 1.5-6.2 1.3-13.3 1.8-19.9 2.6l-21.5 1.8c-.3 0-.8.6-1 1.1l.2 2c3-.2 6-.3 7.6-.9H148l1.7.3c2.4-.6 4 0 6.2-.4l3 .3c0 .3.2 1.2.1 1.4-.1.4-.5 1-1 1-6.7.3-13.3 0-20.3.6l-6.3 1.8c-.4.1-1 .6-1 1l.4 3.9c1.6-.1 3.3.1 4.7.1 1.6-.8 3.2.2 5-.6l.8-.4 2.1.4 11.6-1c.3 0 .9.5 1 1 .2 0 .2.8.2 1-.2.1-1 .7-1.3.7-3.6-.3-8.4.6-12.7.8l-2.8-.4c-1 .4-2.1.7-3.4 1-1 .5-2 1.3-3.2 1.5-.6.1-1.2 1-1.5 1.6-.1.3 0 1.4.2 1.6.6.4 1.3.9 2 .9h7.3l8.1-.7.2 2.4-5.7.4-3.5-.2c-1.5.5-3.3.6-4.9 1-1 .4-2 .9-2.5 1.7l.3 3.5c0 .3.7.8.9.8l10-.8-.4 3.7 21.6-1.9c.4 0 1.7.5 2.2.5.4 0 1.6-.8 2-.8l10.7-1.5 12.6-1.1c3.6 0 7.3.2 10.7.8l2.7-1.4 5.3-.4c.4 0 1-.7 1-1.1l-.3-2.8c0-.4-.6-1-1.2-1-2 .5-4 1.1-6.6 1.3V268c1.6-.6 3.5-1.2 5.5-1.2.8 0 1.7-.5 2-1.1.2-.3-.2-1.8-.1-2.2l.7-5.7-.6-7c-.4-1.6-1-3.2-1.6-4.7.2-1.5.6-3 .6-4.6-2.2-4.6-5.4-7.8-8.3-11.4l-8.3-11.4c-.5-1.9-1.7-3-2.8-4.5l-2.9-3.6c-.3-.4-1.7-.7-2.1-.7-1.6-.2-3.3-.4-5-.3-1 .6-2 .6-3 .3-.2-.1-1.6.8-2.3.9l-13.2 1.1-1.7.7c-.4 0-1.7-.5-2.1-.4l-16.4 1.4c-.2 0-.7-.4-1-.2-.2 0-1.2.6-1.1.8l.2 2.8s.5.6.7.6c1-.2 1.7-.7 2.4-1.1l4.7-.4c.8 0 1.7.4 2.6.4.3-.5 1-.3 1.4-.3 3 0 5.6.6 8.3.6l8.7-.7c0 .3.3 1.1.2 1.4-.2.4-.5.9-.8 1a6 6 0 0 1-2.9.1c-2.1.6-4.1.8-5.8 1.3-2.6-.2-5.1-.6-7.8-.5l-4.8.4c-.6 0-2 .6-2.5.8-.4.3-1 .6-1 1l.2 2.7 3 .3 3.3-.2c1.2 0 2.3.4 3.6 0l5.4-.1 8.2-.9v1.2l-11.8 2.3c-5.3.4-10.6 0-16.2 1a9.7 9.7 0 0 0-5.7 3.3l.1 1.8c.5 0 2-.3 2.4-.2l2.2.4c.4 0 1.6-.8 2-.8l23.2-2 10.6-.3c.3 0 .9.5 1 1 .1 0 .2.7.1.9-.2.4-.5 1.1-1 1.1a78 78 0 0 0-11.5-.2l-24.2 2.1-7.8 2.5-6.1 3.3c-.4 1-.7 2-1.2 2.7 0 .1-.8.2-1 0-.3 0-1.2-.7-1.4-1-.3-.4-1-1.9-1.4-2.3-.2-.2-1-1-1.4-1h-1c-.5.5-1.2 1-1.4 1.7-.2.4 0 1.6.2 2 1 1.3 3 1.8 4.8 2.5-.5 2.3-1.6 4.1-3.3 4.8-2.2 2-4 3.7-5.6 5.8-.6 2-2.2 3.3-4.5 4.3h-.8c-.3 0-1.1-.4-1.3-.6-.1-.2-.3-1.4-.1-1.6l2.7-3.4c.2-.3 0-1.8-.2-2.2a4 4 0 0 0-1.3-1.2c-.7-.2-1.3.4-1.7.8l-2.4 2.8c1.3 2.1 2.5 4.7 2.7 8-.4 1.7-1.3 3-2 4.3-.1.3-1 .6-1.2.8l-2.2 2.6c-.3.4-2 1-2.3 1.4l-2.5 2.9h-1c-.4-.1-1-.4-1.1-.8-.1-.2-.2-1-.1-1.2 0-.4.4-1.8.7-2l2.5-3c.1-.3 0-1.4-.2-1.6-.3-.5-.9-1.2-1.4-1-1 .5-2 .7-2.4 1.3-.3.5-.7 1.8-.8 2.2 0 .3.2 1.5.1 1.7-.2.6-.6 1.3-1.3 1.2-.9-.1-1.7-.5-2.3-.3-2 .5-2.7 2-2.7 3.7 0 .6.3 2.3-.4 2-.9-.2-2.2 0-3.4.2-1.6 1.2-3.1 2.2-4 3.9l.3 3.2c0 .2.6.8.7.8l3.4-1c.5-.2 1 .4 1.4.8-.3.9-1 1.5-1.7 2.3-.2.2-1.4.9-1.8 1-1.7.2-3-.2-4.4-.4-.4-.1-.7-1.5-1.6-1.5l-.7.7c.8 1 2 1.6 2.5 2.7 0 .3.2 1 0 1.3 0 .3-.8 1-1.1 1.3-.2 0-1 .2-1.1 0-.9-.6-1.3-1.8-2.3-2.5a3 3 0 0 0-3.6.4c-.9.7-1.3 1.9-1.5 3.4-.1.6 1.3 1.9 1.7 1.7l2.8-.9c.3 0 .5-.7 1-.7 0 1.2-.5 2.2-.8 3.3-1.6 1-3.3 2.2-4.4 3.8l-2.1 3.8c-.3.5-1.3 1.7-1.8 2-.3.2-1.7.1-2.2.2-.3.9-.7 1.8-1.5 2.7-2.5 1.3-5.6 2.5-8 4.1-.4.3-1.9.2-2.3.2l-.1-1.4c1-.5 1.6-1.3 2.2-2.3.1-.1 0-1.2-.1-1.5l-.8-.7c-1 .3-1.4 1.4-2.2 2l-3.4 2.8c-.5 1-1 2-.9 3 1.1.4 2.3.9 3 2 .3.6-.3 1.2-.3 2 0 .3-.4 1-.8 1l-3.4.3a30.7 30.7 0 0 0-3.6-4.7c-.3-.3-1.3-.4-1.5-.6-.4-.3-1.8-1.3-1.9-1.8-.2-1-.6-1.8-1.2-2.4-1-1-2.2-1.9-3.3-2.8-.2-.1-1.3 0-1.6.2-.3.1-1 1.1-1.3 1.3a2 2 0 0 1-1 0c-.6-.3-1.7-.9-1.6-1.4.2-1.4.5-2.8 1.4-3.7.1-.2 0-1.3-.2-1.6-.3-.4-.7-1-1-.9-1.9.4-3.3-.5-3.9-1.8l-1.3.1c-.8.3-1.5 1-2.2 1.1-.6 0-2.3-.2-2.8-.4-.6-.3-1-.9-1.7-1l-1-12.6c.6-.2 1-1.2 1.5-1.3Z" fill="#fff"/></svg>